<?xml version="1.0" standalone="no"?>
<!DOCTYPE svg PUBLIC "-//W3C//DTD SVG 20010904//EN"
 "http://www.w3.org/TR/2001/REC-SVG-20010904/DTD/svg10.dtd">
<svg version="1.0" xmlns="http://www.w3.org/2000/svg"
 width="512.000000pt" height="512.000000pt" viewBox="0 0 512.000000 512.000000"
 preserveAspectRatio="xMidYMid meet">
<metadata>
Created by potrace 1.16, written by Peter Selinger 2001-2019
</metadata>
<g transform="translate(0.000000,512.000000) scale(0.100000,-0.100000)"
fill="#000000" stroke="none">
<path d="M1992 3052 c-10 -10 -80 -174 -157 -365 l-139 -347 -77 0 c-58 0 -82
-4 -98 -17 -13 -11 -73 -147 -159 -363 l-138 -345 -86 -5 c-72 -4 -90 -9 -102
-25 -12 -17 -297 -722 -310 -770 -8 -27 28 -83 56 -90 13 -3 820 -4 1794 -3
1699 3 1773 4 1792 21 43 39 40 50 -119 448 -84 209 -158 387 -165 397 -9 13
-32 18 -100 22 l-87 5 -138 345 c-90 226 -145 350 -159 362 -17 14 -40 18 -99
18 l-76 0 -129 323 c-145 362 -158 392 -181 401 -9 3 -262 6 -561 6 -510 0
-545 -1 -562 -18z m354 -150 c11 -7 224 -532 224 -552 0 -7 -112 -10 -345 -10
-234 0 -345 3 -345 11 0 9 41 114 162 412 66 166 44 147 177 147 64 0 121 -4
127 -8z m785 -277 c60 -148 109 -273 109 -278 0 -4 -108 -6 -241 -5 l-241 3
-104 260 c-57 143 -107 268 -110 278 -5 16 9 17 237 15 l242 -3 108 -270z
m-1253 -457 c16 -21 222 -541 216 -547 -9 -9 -671 -7 -680 2 -6 6 121 341 192
505 l23 52 119 0 c84 0 123 -4 130 -12z m495 7 c11 -5 -4 -49 -66 -206 -44
-109 -81 -198 -83 -197 -9 10 -160 399 -156 403 7 7 287 6 305 0z m454 -7 c4
-7 56 -132 114 -278 l106 -265 -41 -7 c-53 -9 -558 -9 -613 0 l-41 7 111 278
111 277 122 0 c86 0 125 -4 131 -12z m777 -270 c58 -147 106 -270 106 -273 0
-3 -109 -4 -241 -3 l-241 3 -108 270 -107 270 236 5 c130 3 239 3 243 0 3 -3
54 -125 112 -272z m-2197 -460 c4 -7 55 -132 113 -278 l106 -265 -344 -3
c-190 -1 -347 -1 -348 1 -2 2 46 128 107 280 l111 277 123 0 c88 0 126 -4 132
-12z m503 2 c0 -5 -27 -76 -61 -157 -33 -82 -68 -167 -76 -190 -8 -24 -18 -43
-21 -43 -6 0 -113 261 -158 383 -6 16 6 17 155 17 99 0 161 -4 161 -10z m552
-265 c59 -148 108 -273 108 -277 0 -5 -155 -8 -345 -8 -190 0 -345 3 -345 8 0
4 45 120 101 257 55 138 105 260 110 273 9 22 12 23 136 20 l127 -3 108 -270z
m391 268 c6 -10 -145 -393 -154 -393 -10 0 -160 381 -153 391 6 11 301 12 307
2z m442 -1 c8 -5 169 -396 221 -534 6 -17 -15 -18 -340 -18 -208 0 -346 4
-346 9 0 10 196 504 211 534 8 15 25 17 127 17 64 0 122 -4 127 -8z m679 -19
c21 -42 206 -510 206 -522 0 -8 -78 -11 -238 -11 l-238 0 -107 268 c-59 147
-107 271 -107 275 0 4 80 8 178 10 97 1 203 4 234 5 54 2 58 0 72 -25z"/>
</g>
</svg>
