<?xml version="1.0" standalone="no"?>
<!DOCTYPE svg PUBLIC "-//W3C//DTD SVG 20010904//EN"
 "http://www.w3.org/TR/2001/REC-SVG-20010904/DTD/svg10.dtd">
<svg version="1.0" xmlns="http://www.w3.org/2000/svg"
 width="512.000000pt" height="512.000000pt" viewBox="0 0 512.000000 512.000000"
 preserveAspectRatio="xMidYMid meet">
<metadata>
Created by potrace 1.16, written by Peter Selinger 2001-2019
</metadata>
<g transform="translate(0.000000,512.000000) scale(0.100000,-0.100000)"
fill="#000000" stroke="none">
<path d="M1770 3067 c-28 -14 -34 -29 -84 -218 -19 -74 -57 -215 -84 -314
l-49 -180 -51 -5 c-29 -3 -59 -13 -68 -22 -9 -9 -38 -96 -64 -194 -62 -230
-107 -395 -126 -461 l-15 -53 -44 0 c-79 0 -77 3 -174 -355 -10 -38 -43 -157
-72 -264 -49 -179 -52 -195 -38 -219 8 -15 26 -32 39 -39 20 -10 359 -12 1638
-10 l1614 2 24 28 c13 15 24 37 24 49 0 18 -41 155 -177 588 -30 96 -60 184
-68 196 -13 21 -58 34 -117 34 -30 0 -12 -49 -168 455 -39 127 -79 238 -88
248 -11 11 -39 19 -76 22 -33 3 -60 6 -62 8 -1 1 -20 61 -42 132 -138 447
-171 548 -187 565 -18 20 -35 20 -739 20 -561 0 -727 -3 -746 -13z m247 -237
c13 -47 28 -101 33 -120 49 -171 90 -326 90 -341 0 -18 -12 -19 -211 -19 -173
0 -210 2 -206 13 3 8 38 133 77 278 40 145 74 268 77 272 3 4 30 7 61 5 l56
-3 23 -85z m1145 5 c15 -44 39 -120 53 -170 15 -49 42 -137 61 -195 19 -57 34
-105 34 -107 0 -2 -223 -3 -495 -3 l-494 0 -20 68 c-17 60 -54 199 -109 409
l-19 73 196 3 c108 1 324 2 481 2 l285 0 27 -80z m-1471 -710 c10 -33 43 -156
75 -274 47 -176 54 -215 43 -222 -18 -11 -370 -11 -388 0 -8 5 -12 18 -9 32
12 54 129 486 138 507 9 21 16 23 67 20 l57 -3 17 -60z m325 53 c2 -2 -9 -49
-25 -104 -16 -54 -34 -123 -42 -152 l-13 -53 -43 152 c-23 84 -40 155 -38 159
4 7 154 5 161 -2z m299 1 c4 -5 29 -94 56 -197 28 -103 57 -212 66 -242 30
-106 30 -106 -14 -113 -58 -10 -346 -8 -362 2 -13 8 -8 34 28 168 24 87 55
201 68 253 38 145 33 138 97 139 30 0 58 -4 61 -10z m1190 0 c3 -4 29 -87 59
-186 30 -98 66 -214 80 -258 14 -44 26 -85 26 -92 0 -11 -104 -13 -516 -11
l-516 3 -25 95 c-46 180 -71 275 -96 362 l-25 88 197 3 c362 6 812 4 816 -4z
m-2098 -919 c29 -107 63 -230 75 -273 18 -67 19 -80 7 -88 -17 -11 -396 -12
-402 -1 -2 4 26 120 63 257 37 138 70 263 74 278 6 27 8 28 69 25 l62 -3 52
-195z m276 194 c12 -4 13 -12 7 -32 -4 -15 -23 -82 -41 -150 -18 -67 -34 -120
-36 -118 -9 8 -81 291 -77 298 6 9 125 11 147 2z m384 -259 c39 -143 72 -270
72 -282 l1 -23 -205 0 c-184 0 -205 2 -205 17 0 19 126 497 140 531 9 21 16
23 67 20 l58 -3 72 -260z m270 256 c3 -1 -65 -255 -76 -281 -5 -14 -10 -23
-10 -20 -1 6 -43 169 -64 247 -12 47 -12 53 2 56 12 2 140 1 148 -2z m307 -18
c7 -32 87 -328 121 -448 12 -44 21 -83 19 -86 -1 -3 -93 -7 -203 -8 -166 -2
-202 0 -207 12 -3 8 20 108 51 223 31 115 63 233 71 263 8 29 17 58 20 62 3 5
31 9 64 9 55 0 58 -1 64 -27z m1256 -68 c16 -49 53 -171 84 -270 31 -99 56
-183 56 -187 0 -5 -242 -8 -539 -8 l-539 0 -6 23 c-11 37 -57 207 -78 287 -10
41 -23 89 -28 105 -34 121 -36 135 -26 139 6 2 244 4 530 3 l518 -2 28 -90z"/>
</g>
</svg>
