<?xml version="1.0" standalone="no"?>
<!DOCTYPE svg PUBLIC "-//W3C//DTD SVG 20010904//EN"
 "http://www.w3.org/TR/2001/REC-SVG-20010904/DTD/svg10.dtd">
<svg version="1.0" xmlns="http://www.w3.org/2000/svg"
 width="512.000000pt" height="512.000000pt" viewBox="0 0 512.000000 512.000000"
 preserveAspectRatio="xMidYMid meet">
<metadata>
Created by potrace 1.16, written by Peter Selinger 2001-2019
</metadata>
<g transform="translate(0.000000,512.000000) scale(0.100000,-0.100000)"
fill="#000000" stroke="none">
<path d="M1665 3080 c-47 -18 -54 -41 -122 -381 -37 -184 -71 -337 -77 -341
-6 -4 -21 -8 -33 -8 -29 0 -50 -23 -62 -68 -6 -20 -38 -174 -72 -343 l-62
-306 -42 -11 c-31 -8 -45 -18 -54 -39 -18 -45 -161 -766 -156 -784 3 -9 16
-26 28 -38 l23 -21 1537 2 1536 3 22 21 c27 27 27 69 1 165 -23 83 -61 228
-122 464 -59 233 -60 235 -139 235 -47 0 -33 -38 -145 391 -41 156 -77 291
-81 300 -9 22 -43 38 -89 41 l-40 3 -32 125 c-142 558 -148 578 -182 591 -30
12 -1606 11 -1637 -1z m194 -437 c30 -150 52 -275 49 -278 -3 -3 -64 -4 -135
-3 l-130 3 55 278 c56 278 56 278 81 275 24 -3 26 -10 80 -275z m1354 225 c27
-94 127 -487 127 -498 0 -7 -189 -9 -627 -8 l-627 3 -52 260 c-29 143 -53 268
-53 278 -1 16 34 17 608 17 l610 0 14 -52z m-1592 -954 c30 -151 52 -277 50
-280 -2 -2 -62 -4 -133 -4 -118 0 -128 1 -128 18 0 20 97 508 105 530 2 6 15
12 28 12 22 0 25 -10 78 -276z m424 254 c14 -61 105 -514 105 -525 0 -10 -30
-13 -135 -13 -74 0 -135 1 -135 3 0 2 25 124 55 272 30 149 55 273 55 278 0 4
11 7 25 7 17 0 26 -7 30 -22z m1478 -30 c56 -196 129 -489 124 -495 -4 -3
-303 -7 -664 -7 l-657 -1 -18 85 c-10 47 -24 121 -33 165 -8 44 -26 131 -39
193 l-23 112 648 0 648 0 14 -52z m-2193 -687 c0 -9 97 -488 107 -528 l5 -23
-136 0 c-113 0 -136 2 -136 15 0 15 98 510 105 533 5 14 55 17 55 3z m527
-256 c29 -143 52 -268 53 -277 0 -16 -13 -18 -136 -18 -124 0 -135 1 -130 18
2 9 28 135 57 280 l53 263 25 -3 c25 -3 26 -8 78 -263z m437 193 c26 -118 96
-470 96 -479 0 -5 -61 -9 -135 -9 -74 0 -135 3 -135 8 0 9 96 488 105 525 5
20 13 27 30 27 21 0 25 -8 39 -72z m1597 -193 c38 -143 68 -268 69 -278 0 -16
-38 -17 -697 -15 l-698 3 -32 155 c-18 85 -37 180 -43 210 -5 30 -16 85 -23
123 l-14 67 685 -2 685 -3 68 -260z"/>
</g>
</svg>
