<?xml version="1.0" standalone="no"?>
<!DOCTYPE svg PUBLIC "-//W3C//DTD SVG 20010904//EN"
 "http://www.w3.org/TR/2001/REC-SVG-20010904/DTD/svg10.dtd">
<svg version="1.0" xmlns="http://www.w3.org/2000/svg"
 width="512.000000pt" height="512.000000pt" viewBox="0 0 512.000000 512.000000"
 preserveAspectRatio="xMidYMid meet">
<metadata>
Created by potrace 1.16, written by Peter Selinger 2001-2019
</metadata>
<g transform="translate(0.000000,512.000000) scale(0.100000,-0.100000)"
fill="#000000" stroke="none">
<path d="M1767 3073 c-9 -2 -23 -17 -31 -31 -7 -15 -53 -177 -101 -359 l-89
-333 -41 0 c-83 0 -79 8 -185 -395 -98 -371 -83 -335 -135 -335 -76 0 -75 3
-185 -411 -55 -207 -100 -387 -100 -400 1 -29 17 -51 48 -68 30 -16 3178 -15
3230 1 56 17 65 59 33 168 -98 332 -214 687 -228 698 -15 10 -73 17 -110 13
-7 -1 -16 6 -21 16 -6 10 -55 166 -111 347 -55 181 -108 337 -117 347 -12 14
-31 19 -68 19 -28 0 -56 4 -61 8 -6 4 -48 131 -94 282 -112 368 -128 413 -148
428 -13 9 -176 12 -742 11 -399 -1 -734 -3 -744 -6z m218 -165 c15 -50 145
-541 145 -550 0 -5 -92 -8 -205 -8 -113 0 -205 3 -205 8 0 9 136 523 145 550
3 7 25 12 60 12 36 0 57 -4 60 -12z m1199 -130 c42 -134 111 -361 122 -400 5
-17 -14 -18 -308 -18 -172 0 -397 -3 -499 -7 l-185 -6 -12 29 c-6 16 -39 135
-73 264 -34 129 -64 243 -66 252 -6 19 25 20 689 26 l287 2 45 -142z m-1516
-605 c5 -10 40 -134 77 -276 56 -214 66 -260 54 -268 -15 -9 -358 -13 -381 -4
-12 5 -2 55 52 258 37 139 70 264 74 280 6 25 10 27 61 27 42 0 56 -4 63 -17z
m337 5 c1 -2 -64 -250 -78 -293 -2 -5 -16 40 -32 100 -15 61 -33 128 -40 150
-10 30 -10 42 -2 47 11 7 146 3 152 -4z m363 -256 c40 -147 72 -272 72 -278 0
-7 -10 -14 -22 -18 -33 -8 -376 -7 -381 2 -5 8 134 530 146 550 5 7 30 12 61
12 l53 0 71 -268z m1137 256 c6 -5 165 -525 165 -537 0 -8 -150 -11 -524 -11
l-524 0 -6 23 c-37 124 -136 501 -136 514 0 10 83 13 363 16 372 3 657 1 662
-5z m-2114 -863 c20 -77 53 -201 73 -276 20 -75 36 -139 36 -142 0 -2 -92 -6
-205 -6 -150 -1 -205 1 -205 10 0 6 25 104 55 218 30 113 62 233 71 266 9 33
18 64 21 68 3 4 30 7 61 5 l56 -3 37 -140z m297 128 c-3 -10 -20 -78 -39 -150
-19 -73 -36 -133 -39 -133 -5 0 -80 275 -80 293 0 4 37 7 81 7 73 0 81 -2 77
-17z m304 -18 c87 -324 136 -520 132 -527 -3 -4 -95 -8 -205 -8 -217 0 -207
-3 -189 60 6 19 29 105 51 190 36 140 73 274 84 308 3 9 22 12 62 10 54 -3 58
-5 65 -33z m325 13 c-17 -78 -73 -278 -78 -278 -4 0 -59 197 -76 278 -5 21 -3
22 77 22 80 0 82 -1 77 -22z m370 -253 c39 -148 72 -276 72 -282 1 -16 -394
-19 -404 -3 -3 5 8 61 25 122 17 62 40 149 52 193 20 77 55 206 64 233 3 9 21
12 61 10 l58 -3 72 -270z m1203 203 c12 -40 25 -84 30 -98 5 -14 25 -79 45
-145 39 -128 65 -212 73 -233 3 -10 -108 -12 -549 -10 l-553 3 -13 45 c-15 51
-83 307 -88 330 -2 8 -13 49 -24 90 -12 41 -21 78 -21 82 0 5 243 8 539 8
l539 0 22 -72z"/>
</g>
</svg>
