<?xml version="1.0" standalone="no"?>
<!DOCTYPE svg PUBLIC "-//W3C//DTD SVG 20010904//EN"
 "http://www.w3.org/TR/2001/REC-SVG-20010904/DTD/svg10.dtd">
<svg version="1.0" xmlns="http://www.w3.org/2000/svg"
 width="512.000000pt" height="512.000000pt" viewBox="0 0 512.000000 512.000000"
 preserveAspectRatio="xMidYMid meet">
<metadata>
Created by potrace 1.16, written by Peter Selinger 2001-2019
</metadata>
<g transform="translate(0.000000,512.000000) scale(0.100000,-0.100000)"
fill="#000000" stroke="none">
<path d="M1984 3056 c-21 -15 -40 -56 -119 -261 -123 -318 -169 -431 -178
-442 -6 -8 -35 -13 -79 -13 -38 0 -78 -4 -88 -10 -16 -9 -112 -236 -204 -485
-15 -38 -30 -79 -36 -90 -5 -11 -20 -47 -33 -80 l-23 -60 -81 -3 c-61 -2 -84
-7 -96 -20 -24 -26 -307 -758 -307 -792 0 -21 9 -39 26 -55 l27 -25 1761 0
c1713 0 1762 1 1792 19 58 36 58 39 -106 454 -83 210 -158 389 -167 399 -12
13 -35 18 -97 20 l-81 3 -73 185 c-40 102 -100 255 -134 340 -33 85 -70 165
-81 177 -17 19 -32 23 -101 25 l-80 3 -19 50 c-72 197 -254 642 -269 657 -17
17 -51 18 -576 18 -467 0 -561 -2 -578 -14z m381 -243 c138 -353 176 -456 170
-461 -9 -9 -651 -9 -660 -1 -3 4 37 119 91 255 53 137 102 261 108 277 l10 27
121 0 122 0 38 -97z m764 -163 c57 -144 105 -270 108 -281 5 -18 -2 -19 -253
-19 l-259 0 -94 243 c-52 133 -100 255 -107 271 -8 16 -14 32 -14 35 0 3 116
7 258 9 l257 3 104 -261z m-1258 -490 c22 -38 208 -534 203 -539 -8 -8 -651
-7 -659 1 -4 4 0 26 8 50 26 71 145 378 174 446 l26 63 120 -3 c94 -2 122 -6
128 -18z m484 10 c3 -5 -3 -31 -14 -57 -11 -26 -46 -113 -76 -193 -31 -80 -58
-146 -59 -147 -1 -2 -14 28 -28 65 -90 231 -128 332 -128 337 0 10 299 5 305
-5z m543 -268 c58 -149 102 -275 98 -279 -11 -11 -551 -16 -612 -6 l-51 8 34
90 c97 257 176 451 186 458 7 4 63 6 126 5 l114 -3 105 -273z m564 272 c36 -6
37 -8 79 -113 55 -140 169 -434 169 -438 0 -2 -118 -2 -262 -1 l-261 3 -97
250 c-54 138 -100 260 -104 272 l-7 23 193 3 c106 1 207 3 223 5 17 1 46 -1
67 -4z m-2030 -804 c17 -41 65 -165 108 -275 l77 -200 -335 -3 c-184 -1 -337
-1 -338 1 -3 3 168 446 206 535 10 22 13 23 131 20 l121 -3 30 -75z m458 53
c-4 -16 -12 -39 -18 -53 -6 -14 -32 -79 -57 -145 -57 -148 -71 -179 -78 -169
-7 13 -62 149 -90 224 -14 36 -34 89 -46 118 l-21 52 159 0 160 0 -9 -27z
m468 -50 c17 -43 64 -165 106 -271 42 -106 76 -197 76 -202 0 -6 -129 -10
-335 -10 -184 0 -335 4 -335 8 0 4 44 120 99 258 54 137 102 259 105 272 7 21
11 22 131 22 l124 0 29 -77z m451 25 c-12 -29 -30 -78 -41 -108 -11 -30 -28
-73 -38 -95 -10 -22 -26 -64 -36 -92 -10 -29 -22 -53 -25 -53 -3 0 -14 21 -24
48 -10 26 -44 114 -76 196 -33 81 -59 150 -59 152 0 2 72 4 160 4 l160 0 -21
-52z m531 -166 c46 -119 94 -245 107 -279 l23 -63 -335 0 c-199 0 -335 4 -335
9 0 9 52 148 145 386 26 66 51 130 56 143 8 21 13 22 131 22 l123 0 85 -218z
m691 38 c38 -96 78 -197 89 -225 10 -27 28 -74 39 -102 l21 -53 -264 0 -264 0
-10 28 c-6 15 -53 137 -106 272 -53 135 -96 248 -96 253 0 4 117 6 261 5 l260
-3 70 -175z"/>
</g>
</svg>
