<?xml version="1.0" standalone="no"?>
<!DOCTYPE svg PUBLIC "-//W3C//DTD SVG 20010904//EN"
 "http://www.w3.org/TR/2001/REC-SVG-20010904/DTD/svg10.dtd">
<svg version="1.0" xmlns="http://www.w3.org/2000/svg"
 width="512.000000pt" height="512.000000pt" viewBox="0 0 512.000000 512.000000"
 preserveAspectRatio="xMidYMid meet">
<metadata>
Created by potrace 1.16, written by Peter Selinger 2001-2019
</metadata>
<g transform="translate(0.000000,512.000000) scale(0.100000,-0.100000)"
fill="#000000" stroke="none">
<path d="M1710 3083 c-56 -8 -70 -14 -84 -36 -8 -12 -44 -170 -81 -352 -36
-181 -69 -333 -73 -337 -4 -3 -20 -8 -36 -10 -17 -2 -37 -13 -47 -28 -15 -21
-93 -372 -140 -631 -10 -53 -13 -56 -46 -65 -20 -5 -44 -20 -54 -34 -23 -30
-173 -753 -164 -788 3 -12 14 -31 25 -42 20 -20 40 -20 1556 -20 l1536 0 29
29 c16 16 29 37 29 47 0 9 -27 119 -60 243 -33 124 -78 296 -100 381 -46 175
-56 190 -125 190 l-44 0 -15 53 c-8 28 -47 176 -86 327 -39 151 -76 287 -81
301 -12 32 -41 48 -93 51 l-39 3 -91 344 c-76 287 -95 346 -115 362 -23 19
-47 19 -800 18 -427 -2 -787 -4 -801 -6z m103 -185 c12 -47 107 -517 107 -527
0 -7 -46 -11 -135 -11 -111 0 -135 3 -135 14 0 17 76 396 105 524 4 15 13 22
29 22 16 0 26 -7 29 -22z m1411 -75 c68 -253 116 -439 116 -450 0 -9 -142 -12
-619 -13 -341 0 -622 3 -625 8 -2 4 -27 123 -55 262 -28 140 -53 263 -55 273
-4 16 30 17 604 17 l608 0 26 -97z m-1654 -636 c0 -2 25 -125 55 -273 30 -148
55 -272 55 -276 0 -5 -61 -8 -135 -8 -126 0 -135 1 -135 19 0 19 95 490 106
523 3 11 15 18 30 18 13 0 24 -2 24 -3z m485 -19 c17 -76 105 -513 105 -524 0
-11 -28 -14 -135 -14 -111 0 -135 3 -135 14 0 15 97 498 106 529 8 26 52 22
59 -5z m1468 -30 c55 -194 129 -489 124 -495 -4 -3 -300 -6 -659 -7 l-652 -1
-18 85 c-10 47 -24 121 -33 165 -8 44 -26 131 -38 193 l-24 112 643 0 643 0
14 -52z m-2193 -683 c0 -4 86 -429 107 -527 l6 -28 -142 0 c-131 0 -142 1
-137 18 3 9 28 130 56 267 28 138 52 256 55 263 4 11 55 18 55 7z m485 -17 c8
-34 95 -468 102 -505 l6 -33 -137 0 c-102 0 -136 3 -136 13 0 13 99 515 105
535 2 6 16 12 29 12 18 0 27 -7 31 -22z m479 10 c9 -29 106 -516 106 -531 0
-15 -15 -17 -135 -17 -92 0 -135 4 -135 11 0 13 98 505 106 532 6 20 53 24 58
5z m1563 -118 c87 -331 109 -420 105 -425 -3 -2 -314 -5 -693 -5 -679 0 -688
0 -694 20 -3 11 -8 32 -11 47 -11 63 -95 469 -99 481 -3 10 133 12 677 10
l682 -3 33 -125z"/>
</g>
</svg>
