<?xml version="1.0" standalone="no"?>
<!DOCTYPE svg PUBLIC "-//W3C//DTD SVG 20010904//EN"
 "http://www.w3.org/TR/2001/REC-SVG-20010904/DTD/svg10.dtd">
<svg version="1.0" xmlns="http://www.w3.org/2000/svg"
 width="512.000000pt" height="512.000000pt" viewBox="0 0 512.000000 512.000000"
 preserveAspectRatio="xMidYMid meet">
<metadata>
Created by potrace 1.16, written by Peter Selinger 2001-2019
</metadata>
<g transform="translate(0.000000,512.000000) scale(0.100000,-0.100000)"
fill="#000000" stroke="none">
<path d="M1720 3083 c-49 -5 -77 -21 -89 -52 -5 -14 -40 -170 -77 -346 -37
-176 -72 -323 -78 -327 -6 -4 -21 -8 -33 -8 -13 0 -31 -8 -42 -19 -20 -20 -30
-60 -112 -448 -46 -221 -55 -253 -71 -253 -33 0 -75 -28 -86 -57 -13 -34 -162
-736 -162 -764 0 -11 11 -31 25 -44 l24 -25 1546 0 1547 0 29 29 c16 16 29 37
29 46 0 18 -169 654 -196 738 -21 64 -36 77 -93 77 l-48 0 -32 118 c-18 64
-59 218 -92 342 -68 255 -76 270 -153 270 l-43 0 -43 163 c-24 89 -58 218 -76
286 -62 233 -72 261 -101 272 -23 9 -1483 11 -1573 2z m115 -185 c3 -13 28
-129 55 -258 27 -129 52 -245 55 -257 l5 -23 -145 0 c-115 0 -145 3 -145 13 0
14 40 214 85 421 14 65 25 120 25 122 0 2 13 4 30 4 23 0 31 -5 35 -22z m1365
5 c0 -13 104 -414 136 -525 5 -17 -28 -18 -604 -18 l-609 0 -46 213 c-43 198
-67 320 -67 339 0 4 268 8 595 8 552 0 595 -1 595 -17z m-1616 -730 c3 -10 28
-126 56 -258 27 -132 53 -250 56 -262 l6 -23 -146 0 c-137 0 -146 1 -146 19 0
10 25 135 55 276 30 142 55 260 55 262 0 1 13 3 29 3 20 0 31 -6 35 -17z m504
-20 c6 -21 31 -137 56 -258 26 -121 49 -230 52 -242 l6 -23 -146 0 c-121 0
-146 2 -146 15 0 8 20 110 44 227 74 353 64 318 96 318 25 0 30 -5 38 -37z
m1435 -15 c8 -29 42 -152 74 -273 l60 -220 -81 -7 c-45 -3 -333 -6 -642 -7
l-561 -1 -27 133 c-29 142 -51 241 -66 297 -5 19 -12 56 -15 83 l-7 47 625 0
626 0 14 -52z m-2189 -695 c3 -10 28 -126 56 -258 27 -132 52 -250 55 -262 l5
-23 -151 0 c-128 0 -150 2 -146 14 3 8 13 50 22 93 8 43 22 107 30 143 29 128
65 298 65 304 0 3 13 6 29 6 20 0 31 -6 35 -17z m500 0 c3 -10 28 -126 56
-258 28 -132 54 -250 57 -262 l5 -23 -146 0 c-164 0 -153 -6 -135 82 11 57 86
418 95 456 6 28 60 32 68 5z m508 -23 c4 -19 28 -136 53 -260 26 -124 49 -233
51 -242 5 -17 -6 -18 -140 -18 -121 0 -146 2 -146 15 0 17 8 56 66 327 24 114
44 210 44 213 0 3 14 5 32 3 28 -3 33 -8 40 -38z m1498 -2 c26 -99 103 -387
116 -432 27 -95 102 -85 -661 -86 l-674 0 -7 37 c-8 47 -52 256 -88 421 -9 40
-16 80 -16 88 0 12 93 14 660 14 l659 0 11 -42z"/>
</g>
</svg>
