<?xml version="1.0" standalone="no"?>
<!DOCTYPE svg PUBLIC "-//W3C//DTD SVG 20010904//EN"
 "http://www.w3.org/TR/2001/REC-SVG-20010904/DTD/svg10.dtd">
<svg version="1.0" xmlns="http://www.w3.org/2000/svg"
 width="512.000000pt" height="512.000000pt" viewBox="0 0 512.000000 512.000000"
 preserveAspectRatio="xMidYMid meet">
<metadata>
Created by potrace 1.16, written by Peter Selinger 2001-2019
</metadata>
<g transform="translate(0.000000,512.000000) scale(0.100000,-0.100000)"
fill="#000000" stroke="none">
<path d="M2158 3080 c-547 -6 -496 7 -527 -135 -89 -406 -123 -553 -131 -572
-7 -16 -18 -23 -39 -23 -67 0 -66 3 -208 -640 -17 -77 -21 -85 -43 -88 -50 -5
-65 -12 -78 -32 -7 -12 -51 -192 -98 -401 -80 -359 -83 -381 -69 -409 10 -20
27 -32 53 -39 43 -11 59 -11 1806 -4 l1309 5 24 24 c38 38 46 -3 -140 667 -24
87 -52 166 -61 175 -9 9 -39 19 -68 22 l-53 5 -47 170 c-26 94 -69 246 -94
339 -26 92 -55 178 -65 189 -12 15 -32 23 -70 27 l-53 5 -49 175 c-26 96 -69
249 -93 340 -28 103 -53 173 -65 185 -19 19 -33 20 -347 20 -180 1 -537 -2
-794 -5z m-285 -192 c3 -18 31 -143 61 -278 31 -134 56 -246 56 -247 0 -2 -72
-3 -160 -3 -88 0 -160 2 -160 5 0 2 27 125 60 272 33 148 60 271 60 276 0 4
17 7 39 7 36 0 39 -2 44 -32z m1335 -75 c71 -248 110 -390 117 -420 l6 -32
-584 -1 -584 0 -32 142 c-18 79 -36 161 -41 183 -6 22 -17 76 -26 120 -8 44
-17 88 -20 98 -5 16 26 17 564 17 l569 0 31 -107z m-1605 -640 c24 -89 117
-515 117 -533 0 -6 -54 -10 -155 -10 -128 0 -155 3 -155 14 0 8 16 88 36 178
20 90 43 192 51 228 30 139 30 140 68 140 24 0 35 -5 38 -17z m531 5 c10 -32
116 -524 116 -535 0 -10 -38 -13 -155 -13 -128 0 -155 3 -155 14 0 14 107 508
115 534 3 6 20 12 40 12 20 0 37 -6 39 -12z m1380 -5 c14 -48 146 -532 146
-537 0 -3 -277 -4 -617 -3 l-616 2 -29 130 c-33 153 -77 346 -88 393 l-8 32
603 0 c566 0 604 -1 609 -17z m-2120 -973 c32 -143 60 -269 63 -280 5 -19 1
-20 -156 -20 -88 0 -161 2 -161 6 0 8 69 320 85 384 7 30 19 81 25 113 l11 57
38 0 37 0 58 -260z m531 -2 c32 -145 60 -271 63 -280 4 -17 -8 -18 -157 -18
-88 0 -161 3 -161 6 0 3 27 126 60 273 33 147 60 271 60 274 0 4 17 7 38 7
l38 0 59 -262z m529 5 c31 -142 59 -268 62 -280 l6 -23 -162 0 -162 0 5 28 c3
15 31 137 62 272 30 135 55 248 55 253 0 4 17 7 38 7 l39 0 57 -257z m1405
180 c11 -43 45 -166 75 -273 30 -107 52 -197 49 -200 -2 -3 -293 -5 -645 -5
l-641 0 -17 65 c-10 36 -30 121 -44 190 -15 69 -34 154 -42 190 -8 36 -17 75
-20 88 l-4 22 634 0 634 0 21 -77z"/>
</g>
</svg>
