<?xml version="1.0" standalone="no"?>
<!DOCTYPE svg PUBLIC "-//W3C//DTD SVG 20010904//EN"
 "http://www.w3.org/TR/2001/REC-SVG-20010904/DTD/svg10.dtd">
<svg version="1.0" xmlns="http://www.w3.org/2000/svg"
 width="512.000000pt" height="512.000000pt" viewBox="0 0 512.000000 512.000000"
 preserveAspectRatio="xMidYMid meet">
<metadata>
Created by potrace 1.16, written by Peter Selinger 2001-2019
</metadata>
<g transform="translate(0.000000,512.000000) scale(0.100000,-0.100000)"
fill="#000000" stroke="none">
<path d="M1978 3060 c-16 -10 -69 -139 -219 -530 -34 -91 -67 -171 -72 -177
-6 -9 -36 -13 -83 -13 -59 0 -78 -4 -92 -18 -11 -11 -45 -86 -77 -168 -32 -82
-92 -237 -134 -344 l-76 -195 -85 -5 c-81 -5 -85 -6 -101 -35 -30 -52 -299
-751 -299 -778 0 -16 11 -35 31 -51 l31 -26 1754 0 c1521 0 1759 2 1783 15 54
27 54 67 1 200 -22 55 -87 219 -144 365 -57 146 -113 275 -124 287 -18 20 -30
23 -96 23 -61 0 -77 3 -85 18 -5 9 -66 163 -136 342 -70 179 -136 335 -147
347 -18 19 -33 23 -100 25 l-80 3 -20 50 c-10 28 -32 84 -48 125 -133 348
-204 517 -221 533 -20 16 -62 17 -583 17 -348 0 -567 -4 -578 -10z m420 -345
c40 -104 82 -212 92 -240 10 -27 25 -66 34 -86 l15 -37 -51 -6 c-29 -4 -179
-6 -335 -5 -225 1 -283 4 -283 15 0 9 139 373 207 542 4 9 35 12 126 10 l121
-3 74 -190z m649 143 c12 -29 43 -107 68 -173 26 -66 67 -168 91 -228 l43
-107 -265 2 -266 3 -54 140 c-30 77 -77 197 -104 267 -28 69 -50 131 -50 136
0 7 92 11 258 11 l258 2 21 -53z m-1077 -958 l107 -275 -41 -8 c-51 -10 -612
-5 -622 5 -4 5 36 119 89 255 53 137 101 261 106 276 l11 28 121 -3 121 -3
108 -275z m375 270 c8 -13 -137 -392 -147 -382 -11 12 -148 366 -148 383 0 13
287 11 295 -1z m431 2 c14 -9 225 -544 218 -552 -9 -8 -651 -6 -660 3 -4 4 9
49 29 100 20 50 66 169 102 262 37 94 71 176 77 183 12 13 214 17 234 4z m787
-172 c36 -91 82 -208 102 -260 21 -52 40 -101 42 -107 4 -10 -52 -13 -261 -13
-245 0 -267 1 -273 18 -3 9 -38 98 -76 197 -75 191 -127 328 -127 332 0 5 515
8 522 3 3 -3 35 -79 71 -170z m-2066 -795 c51 -132 100 -257 107 -277 l14 -38
-339 0 -339 0 21 53 c12 28 57 144 101 257 44 113 84 215 89 228 9 22 12 23
131 20 l122 -3 93 -240z m382 193 c-96 -240 -129 -328 -129 -339 0 -36 -28 26
-140 319 l-28 72 159 0 159 0 -21 -52z m539 -193 c51 -132 100 -257 107 -277
l14 -38 -340 0 -339 0 16 38 c8 20 44 111 79 202 35 91 77 199 94 240 17 41
31 76 31 78 0 1 55 1 122 0 l123 -3 93 -240z m387 208 c-9 -21 -44 -111 -77
-201 -34 -90 -65 -159 -69 -155 -4 4 -26 55 -48 113 -22 58 -55 144 -74 193
l-35 87 159 0 159 0 -15 -37z m491 -98 c41 -105 138 -354 161 -412 4 -10 -66
-13 -331 -13 -194 0 -336 4 -336 9 0 8 56 155 172 449 l40 103 122 -3 121 -3
51 -130z m721 -17 c120 -303 153 -388 153 -398 0 -6 -95 -10 -264 -10 l-263 0
-56 143 c-31 78 -80 204 -110 280 l-54 137 267 0 266 0 61 -152z"/>
</g>
</svg>
