<?xml version="1.0" standalone="no"?>
<!DOCTYPE svg PUBLIC "-//W3C//DTD SVG 20010904//EN"
 "http://www.w3.org/TR/2001/REC-SVG-20010904/DTD/svg10.dtd">
<svg version="1.0" xmlns="http://www.w3.org/2000/svg"
 width="512.000000pt" height="512.000000pt" viewBox="0 0 512.000000 512.000000"
 preserveAspectRatio="xMidYMid meet">
<metadata>
Created by potrace 1.16, written by Peter Selinger 2001-2019
</metadata>
<g transform="translate(0.000000,512.000000) scale(0.100000,-0.100000)"
fill="#000000" stroke="none">
<path d="M1694 3083 c-51 -9 -62 -39 -120 -309 -30 -142 -62 -292 -70 -332
-17 -91 -18 -92 -55 -92 -62 0 -61 2 -160 -467 -46 -221 -55 -253 -71 -253
-33 0 -75 -28 -86 -57 -14 -34 -162 -734 -162 -763 0 -12 11 -32 25 -45 l24
-25 1546 0 1547 0 29 29 c16 16 29 37 29 46 0 9 -41 168 -91 353 -50 185 -94
351 -99 367 -8 37 -29 77 -44 87 -6 4 -32 8 -58 8 -27 0 -48 2 -48 5 0 3 -41
158 -90 343 -102 378 -104 382 -184 382 l-43 0 -32 123 c-115 434 -153 563
-172 582 -19 20 -33 20 -807 21 -433 0 -797 -1 -808 -3z m197 -438 c32 -148
58 -273 59 -277 0 -5 -65 -8 -145 -8 -168 0 -156 -13 -125 131 41 186 90 420
90 425 0 3 14 4 32 2 l32 -3 57 -270z m1313 223 c25 -89 136 -496 136 -502 0
-3 -274 -6 -609 -6 l-609 0 -5 22 c-15 73 -99 478 -104 506 l-6 32 591 0 591
0 15 -52z m-1563 -958 c33 -151 59 -276 59 -277 0 -2 -65 -3 -145 -3 -134 0
-145 1 -145 18 0 10 12 72 26 138 46 216 72 339 79 372 6 30 10 33 38 30 l30
-3 58 -275z m450 245 c3 -16 28 -131 54 -255 26 -124 50 -235 53 -247 l4 -23
-146 0 c-121 0 -146 2 -146 15 0 8 25 130 55 272 30 142 55 262 55 266 0 5 14
7 32 5 27 -2 33 -8 39 -33z m1423 18 c6 -21 100 -368 126 -464 l17 -67 -291
-7 c-160 -3 -448 -5 -640 -3 l-349 3 -29 125 c-29 130 -54 247 -63 290 -2 14
-9 43 -14 65 -21 83 -87 75 613 75 586 0 625 -1 630 -17z m-2153 -853 c26
-125 73 -345 86 -397 l5 -23 -145 0 c-80 0 -148 3 -150 8 -3 6 27 154 99 480
16 73 16 73 47 70 l31 -3 27 -135z m530 -135 c32 -148 58 -273 59 -277 0 -5
-66 -8 -146 -8 l-147 0 7 43 c6 37 46 229 92 445 16 73 16 73 47 70 l30 -3 58
-270z m458 208 c7 -38 33 -159 57 -271 24 -112 44 -208 44 -213 0 -5 -63 -9
-145 -9 -120 0 -145 2 -145 15 0 8 25 130 55 272 30 142 55 261 55 266 0 4 15
7 33 7 33 0 33 0 46 -67z m1491 25 c7 -24 22 -81 35 -128 45 -162 95 -359 95
-374 0 -13 -75 -15 -669 -16 -368 0 -672 3 -675 8 -2 4 -14 53 -25 107 -11 55
-29 143 -41 195 -44 207 -50 235 -50 242 0 5 297 8 660 8 l659 0 11 -42z"/>
</g>
</svg>
