<?xml version="1.0" standalone="no"?>
<!DOCTYPE svg PUBLIC "-//W3C//DTD SVG 20010904//EN"
 "http://www.w3.org/TR/2001/REC-SVG-20010904/DTD/svg10.dtd">
<svg version="1.0" xmlns="http://www.w3.org/2000/svg"
 width="512.000000pt" height="512.000000pt" viewBox="0 0 512.000000 512.000000"
 preserveAspectRatio="xMidYMid meet">
<metadata>
Created by potrace 1.16, written by Peter Selinger 2001-2019
</metadata>
<g transform="translate(0.000000,512.000000) scale(0.100000,-0.100000)"
fill="#000000" stroke="none">
<path d="M1992 3052 c-10 -10 -81 -175 -157 -365 l-139 -347 -77 0 c-58 0 -82
-4 -98 -17 -13 -11 -73 -147 -159 -363 l-138 -345 -86 -5 c-72 -4 -90 -8 -102
-25 -13 -18 -230 -554 -293 -723 -21 -58 -22 -65 -8 -92 8 -16 24 -34 35 -40
13 -7 583 -9 1798 -8 1706 3 1781 4 1800 21 42 38 39 50 -119 447 -84 209
-158 388 -165 398 -9 13 -32 18 -100 22 l-87 5 -138 345 c-90 226 -145 350
-159 362 -17 14 -40 18 -99 18 l-76 0 -125 313 c-140 352 -162 402 -185 411
-9 3 -262 6 -561 6 -515 0 -545 -1 -562 -18z m356 -155 c12 -14 222 -533 222
-548 0 -5 -145 -9 -345 -9 -218 0 -345 4 -345 10 0 11 111 295 177 453 l45
107 118 0 c84 0 121 -4 128 -13z m783 -272 c60 -148 109 -273 109 -278 0 -4
-109 -6 -242 -5 l-242 3 -108 270 c-59 149 -107 273 -108 278 0 4 109 6 241 5
l242 -3 108 -270z m-1253 -457 c6 -7 57 -132 115 -278 l105 -265 -41 -8 c-52
-10 -633 -5 -643 6 -6 6 121 341 192 505 l23 52 119 0 c83 0 123 -4 130 -12z
m497 3 c7 -12 -143 -406 -152 -397 -10 10 -160 392 -156 399 6 10 301 9 308
-2z m559 -269 c60 -149 106 -275 102 -280 -11 -10 -569 -15 -633 -5 l-52 8
103 260 c56 143 106 268 109 278 6 16 19 17 134 15 l128 -3 109 -273z m670 -4
c58 -147 106 -270 106 -273 0 -3 -109 -4 -242 -3 l-242 3 -108 270 c-59 148
-108 271 -108 272 0 5 475 8 482 3 3 -3 54 -125 112 -272z m-2197 -460 c4 -7
55 -132 113 -278 l106 -265 -344 -3 c-190 -1 -346 -1 -348 1 -2 2 47 128 107
280 l111 277 123 0 c88 0 126 -4 132 -12z m503 5 c0 -14 -154 -393 -160 -393
-4 0 -116 275 -156 383 -6 16 6 17 155 17 89 0 161 -3 161 -7z m546 -258 c57
-143 107 -268 110 -277 5 -17 -16 -18 -341 -18 -326 0 -347 1 -342 18 5 20
207 523 214 535 2 4 61 6 130 5 l125 -3 104 -260z m396 260 c5 -5 -88 -249
-138 -364 l-19 -43 -78 199 c-43 109 -77 201 -77 206 0 8 304 10 312 2z m445
-7 c6 -7 52 -119 103 -248 51 -129 99 -250 107 -267 l13 -33 -350 0 -350 0 19
48 c57 146 185 461 197 485 l15 27 118 0 c83 0 121 -4 128 -12z m676 -15 c8
-16 49 -116 92 -223 43 -107 88 -221 101 -252 l23 -58 -243 0 -243 0 -15 38
c-9 20 -43 107 -77 192 -35 85 -78 192 -96 237 l-34 83 182 3 c100 1 208 3
239 5 54 2 58 0 71 -25z"/>
</g>
</svg>
