<?xml version="1.0" standalone="no"?>
<!DOCTYPE svg PUBLIC "-//W3C//DTD SVG 20010904//EN"
 "http://www.w3.org/TR/2001/REC-SVG-20010904/DTD/svg10.dtd">
<svg version="1.0" xmlns="http://www.w3.org/2000/svg"
 width="512.000000pt" height="512.000000pt" viewBox="0 0 512.000000 512.000000"
 preserveAspectRatio="xMidYMid meet">
<metadata>
Created by potrace 1.16, written by Peter Selinger 2001-2019
</metadata>
<g transform="translate(0.000000,512.000000) scale(0.100000,-0.100000)"
fill="#000000" stroke="none">
<path d="M1991 3053 c-12 -11 -72 -148 -151 -348 -71 -181 -134 -337 -139
-345 -6 -11 -30 -16 -88 -18 -68 -2 -83 -6 -100 -25 -11 -12 -66 -139 -122
-282 -56 -143 -106 -269 -111 -280 -5 -11 -20 -47 -33 -80 l-23 -60 -80 -5
c-43 -3 -87 -9 -96 -15 -21 -13 -318 -757 -318 -797 0 -18 9 -38 26 -53 l27
-25 1771 0 c1648 0 1773 1 1796 17 33 23 40 33 40 66 0 32 -296 783 -313 794
-7 5 -50 10 -97 13 l-84 5 -137 344 c-91 230 -144 351 -159 363 -17 14 -40 18
-96 18 -47 0 -76 4 -81 13 -4 6 -67 163 -141 347 -79 199 -141 342 -154 353
-19 16 -61 17 -568 17 -507 0 -549 -1 -569 -17z m356 -155 c7 -10 160 -387
220 -543 4 -13 -41 -15 -341 -15 -279 0 -346 3 -346 13 0 13 201 524 215 546
9 16 240 15 252 -1z m702 -61 c13 -34 61 -157 107 -273 46 -116 84 -213 84
-215 0 -5 -489 -3 -493 2 -2 2 -35 87 -75 189 -39 102 -87 224 -106 273 l-35
87 247 0 247 0 24 -63z m-1172 -669 c5 -7 38 -85 72 -173 35 -88 81 -206 104
-262 22 -57 37 -106 33 -110 -10 -11 -510 -17 -603 -8 -40 4 -73 11 -73 16 0
5 48 131 107 279 l107 270 122 0 c85 0 124 -4 131 -12z m495 -13 c-2 -11 -37
-103 -77 -204 l-73 -185 -17 40 c-34 82 -145 363 -145 368 0 4 71 5 158 4 151
-3 157 -4 154 -23z m556 -252 l111 -278 -52 -7 c-63 -9 -623 -6 -632 4 -3 3
36 113 88 245 52 131 98 248 101 260 15 48 30 53 156 53 l118 0 110 -277z
m534 271 c32 -6 38 -11 56 -58 11 -28 58 -149 106 -268 47 -120 86 -220 86
-223 0 -3 -109 -5 -243 -5 l-243 0 -57 138 c-31 75 -70 171 -86 212 -16 41
-40 103 -54 137 l-25 63 181 3 c100 1 196 3 212 5 17 1 46 -1 67 -4z m-1950
-994 c58 -146 107 -273 107 -283 1 -17 -19 -18 -339 -16 -187 1 -342 4 -344 8
-2 3 46 131 107 284 l111 278 125 -3 126 -3 107 -265z m392 262 c5 -9 -69
-204 -125 -329 -11 -23 -19 -47 -19 -52 0 -6 -4 -11 -8 -11 -8 0 -162 375
-162 393 0 10 308 9 314 -1z m443 -4 c9 -12 223 -541 223 -551 0 -3 -155 -5
-345 -6 -294 -1 -345 1 -345 13 0 14 191 500 211 539 8 15 26 17 128 17 83 0
121 -4 128 -12z m503 3 c0 -6 -28 -79 -61 -163 -34 -84 -69 -173 -79 -197
l-17 -43 -48 118 c-99 246 -113 283 -107 288 10 10 312 7 312 -3z m436 1 c10
-7 224 -534 224 -553 0 -5 -137 -9 -345 -9 -237 0 -345 3 -345 11 0 9 206 533
217 552 5 9 235 9 249 -1z m681 -4 c5 -7 26 -58 48 -113 21 -55 64 -164 96
-242 32 -78 61 -153 65 -167 l6 -26 -243 0 -244 1 -32 77 c-43 103 -183 461
-183 467 0 2 82 6 183 8 100 1 207 3 238 5 36 1 60 -3 66 -10z"/>
</g>
</svg>
