<?xml version="1.0" standalone="no"?>
<!DOCTYPE svg PUBLIC "-//W3C//DTD SVG 20010904//EN"
 "http://www.w3.org/TR/2001/REC-SVG-20010904/DTD/svg10.dtd">
<svg version="1.0" xmlns="http://www.w3.org/2000/svg"
 width="512.000000pt" height="512.000000pt" viewBox="0 0 512.000000 512.000000"
 preserveAspectRatio="xMidYMid meet">
<metadata>
Created by potrace 1.16, written by Peter Selinger 2001-2019
</metadata>
<g transform="translate(0.000000,512.000000) scale(0.100000,-0.100000)"
fill="#000000" stroke="none">
<path d="M1992 3053 c-11 -10 -78 -165 -153 -353 -73 -184 -137 -341 -142
-347 -6 -9 -37 -13 -87 -13 -71 0 -80 -2 -98 -24 -10 -14 -65 -141 -121 -283
-56 -142 -106 -267 -111 -278 -5 -11 -20 -47 -33 -80 l-23 -60 -80 -5 c-43 -3
-86 -9 -96 -15 -24 -14 -318 -751 -318 -797 0 -28 6 -42 26 -57 l27 -21 1771
0 c1723 0 1772 1 1802 19 17 11 34 30 38 44 4 19 -33 124 -150 416 -86 215
-161 394 -167 398 -7 5 -50 10 -97 13 l-84 5 -137 344 c-91 230 -144 351 -159
363 -17 14 -40 18 -96 18 -47 0 -76 4 -81 13 -4 6 -64 154 -134 327 -140 349
-151 375 -174 384 -9 3 -261 6 -560 6 -503 0 -544 -1 -563 -17z m356 -155 c6
-7 19 -35 30 -63 10 -27 45 -113 77 -190 79 -192 115 -285 115 -296 0 -5 -137
-9 -345 -9 -237 0 -345 3 -345 11 0 8 170 442 210 537 9 21 15 22 129 22 83 0
122 -4 129 -12z m682 -8 c0 -10 128 -338 179 -457 17 -40 31 -76 31 -80 0 -8
-477 -10 -484 -2 -6 6 -216 532 -216 541 0 4 110 8 245 8 154 0 245 -4 245
-10z m-1152 -722 c5 -7 34 -74 63 -148 29 -74 76 -193 105 -265 l53 -130 -42
-7 c-54 -8 -525 -10 -594 -2 -29 4 -53 11 -53 16 0 4 48 130 107 278 l107 270
122 0 c85 0 125 -4 132 -12z m505 6 c3 -3 2 -14 -3 -23 -6 -9 -42 -97 -81
-196 -39 -99 -72 -181 -73 -183 -2 -1 -24 53 -51 120 -45 117 -62 157 -98 239
-8 21 -13 40 -10 43 8 8 308 8 316 0z m467 -64 c115 -271 194 -479 185 -488
-8 -9 -671 -9 -680 -1 -3 4 1 22 9 40 9 19 56 137 106 263 50 126 96 236 102
243 8 10 40 13 131 11 l119 -3 28 -65z m612 64 c32 -6 38 -11 56 -58 11 -28
58 -149 106 -268 47 -120 86 -220 86 -223 0 -3 -109 -4 -242 -3 l-242 3 -28
70 c-15 39 -64 160 -107 270 l-80 200 177 5 c97 3 191 7 207 8 17 1 46 -1 67
-4z m-1950 -994 c59 -146 107 -271 108 -277 0 -10 -76 -13 -346 -13 -273 0
-345 3 -341 13 3 6 53 133 112 280 l107 268 127 -3 126 -3 107 -265z m392 261
c8 -13 -141 -391 -154 -391 -7 0 -160 377 -160 393 0 10 308 9 314 -2z m497
-121 c27 -69 74 -183 103 -255 30 -71 57 -140 61 -152 l6 -23 -345 0 c-190 0
-346 3 -346 8 0 6 181 462 210 530 10 22 13 23 136 20 l126 -3 49 -125z m452
123 c3 -5 -13 -51 -33 -103 -92 -229 -110 -278 -110 -291 0 -25 -18 7 -59 104
-73 171 -111 269 -111 283 0 11 30 14 154 14 85 0 157 -3 159 -7z m444 -5 c5
-7 20 -38 32 -68 12 -30 26 -64 31 -75 15 -33 107 -265 134 -337 l25 -68 -344
0 c-196 0 -345 4 -345 9 0 8 63 172 94 246 7 17 37 92 66 168 l53 137 122 0
c86 0 125 -4 132 -12z m670 0 c12 -16 213 -522 213 -537 0 -8 -75 -11 -239
-11 l-238 0 -78 193 c-90 221 -135 339 -135 349 0 4 80 9 178 11 97 1 202 4
233 5 36 1 60 -3 66 -10z"/>
</g>
</svg>
