<?xml version="1.0" standalone="no"?>
<!DOCTYPE svg PUBLIC "-//W3C//DTD SVG 20010904//EN"
 "http://www.w3.org/TR/2001/REC-SVG-20010904/DTD/svg10.dtd">
<svg version="1.0" xmlns="http://www.w3.org/2000/svg"
 width="512.000000pt" height="512.000000pt" viewBox="0 0 512.000000 512.000000"
 preserveAspectRatio="xMidYMid meet">
<metadata>
Created by potrace 1.16, written by Peter Selinger 2001-2019
</metadata>
<g transform="translate(0.000000,512.000000) scale(0.100000,-0.100000)"
fill="#000000" stroke="none">
<path d="M1694 3082 c-75 -6 -77 -11 -151 -383 -37 -184 -71 -337 -77 -341 -6
-4 -21 -8 -33 -8 -29 0 -50 -23 -62 -68 -6 -20 -38 -174 -72 -343 l-62 -306
-35 -9 c-19 -5 -43 -20 -53 -34 -21 -29 -174 -774 -163 -793 4 -6 16 -22 27
-35 l20 -22 1524 0 c1670 0 1574 -3 1590 58 9 35 8 44 -32 192 -18 69 -58 224
-89 345 -32 121 -62 233 -68 248 -14 35 -36 47 -87 47 -47 0 -33 -38 -145 391
-41 156 -77 291 -81 300 -9 22 -43 38 -89 41 l-40 3 -32 125 c-142 557 -148
578 -181 591 -24 9 -1504 10 -1609 1z m115 -199 c23 -90 104 -513 99 -518 -3
-3 -64 -4 -135 -3 l-130 3 55 278 c53 268 55 277 78 277 18 0 25 -8 33 -37z
m1405 -15 c8 -29 29 -107 45 -173 17 -66 42 -163 56 -214 14 -52 25 -101 25
-108 0 -11 -115 -13 -627 -11 l-628 3 -32 160 c-29 140 -50 250 -70 363 l-6
32 611 0 611 0 15 -52z m-1594 -954 c31 -151 54 -277 51 -280 -2 -2 -62 -4
-133 -4 -118 0 -128 1 -128 18 0 20 97 508 105 530 2 6 15 12 27 12 22 0 25
-11 78 -276z m425 254 c10 -41 105 -522 105 -530 0 -4 -61 -8 -135 -8 -74 0
-135 2 -135 4 0 3 25 126 55 274 30 149 55 273 55 276 0 3 11 6 25 6 17 0 26
-7 30 -22z m1478 -30 c55 -194 129 -489 124 -495 -4 -3 -302 -6 -664 -7 l-657
-1 -23 105 c-12 58 -27 132 -33 165 -5 33 -17 92 -25 130 -9 39 -20 89 -24
113 l-8 42 648 0 648 0 14 -52z m-2144 -935 c28 -142 54 -268 57 -280 l6 -23
-136 0 c-102 0 -136 3 -136 13 0 13 99 515 105 535 2 6 15 12 28 12 23 0 26
-7 76 -257z m478 -8 c29 -143 52 -268 53 -277 0 -16 -13 -18 -136 -18 -124 0
-135 1 -130 18 3 9 28 135 57 280 l52 263 26 -3 c25 -3 26 -7 78 -263z m423
263 c0 -2 25 -126 55 -276 30 -151 55 -276 55 -278 0 -2 -61 -4 -135 -4 -74 0
-135 3 -135 8 0 7 96 491 105 530 4 15 13 22 30 22 14 0 25 -1 25 -2z m1605
-243 c34 -132 65 -257 69 -277 l7 -38 -695 0 c-387 0 -697 4 -700 9 -3 5 -28
123 -56 262 -28 140 -52 262 -54 272 -4 16 32 17 681 15 l686 -3 62 -240z"/>
</g>
</svg>
