<?xml version="1.0" standalone="no"?>
<!DOCTYPE svg PUBLIC "-//W3C//DTD SVG 20010904//EN"
 "http://www.w3.org/TR/2001/REC-SVG-20010904/DTD/svg10.dtd">
<svg version="1.0" xmlns="http://www.w3.org/2000/svg"
 width="512.000000pt" height="512.000000pt" viewBox="0 0 512.000000 512.000000"
 preserveAspectRatio="xMidYMid meet">
<metadata>
Created by potrace 1.16, written by Peter Selinger 2001-2019
</metadata>
<g transform="translate(0.000000,512.000000) scale(0.100000,-0.100000)"
fill="#000000" stroke="none">
<path d="M2063 3080 c-356 -5 -373 -6 -392 -25 -14 -14 -33 -78 -65 -225 -114
-516 -102 -474 -142 -478 -15 -1 -38 -9 -50 -17 -24 -16 -28 -28 -125 -467
-46 -204 -56 -238 -71 -238 -42 0 -86 -28 -97 -62 -5 -18 -46 -196 -91 -396
-75 -339 -79 -365 -65 -391 8 -16 27 -33 42 -38 38 -14 760 -16 2047 -7 l1080
7 23 23 c15 15 23 35 23 56 -1 50 -205 767 -224 786 -9 9 -39 19 -68 22 l-52
5 -22 75 c-12 41 -54 192 -94 335 -39 143 -78 270 -86 282 -15 23 -34 31 -93
35 -27 2 -36 9 -42 28 -4 14 -28 99 -53 190 -143 517 -132 485 -173 501 -25 9
-476 9 -1210 -1z m-140 -417 c32 -142 60 -268 63 -280 l6 -23 -161 0 c-88 0
-161 2 -161 5 0 2 27 125 60 272 33 148 60 271 60 276 0 4 17 7 38 7 l38 0 57
-257z m1271 202 c43 -145 136 -488 136 -497 0 -5 -262 -8 -583 -8 l-584 0 -46
208 c-26 114 -52 232 -57 262 -6 30 -13 63 -16 73 -5 16 26 17 565 17 l570 0
15 -55z m-1590 -692 c10 -34 116 -516 116 -530 0 -10 -32 -13 -155 -13 -132 0
-155 2 -155 15 0 8 9 57 21 108 11 50 24 110 28 132 13 62 62 279 66 293 7 19
73 15 79 -5z m530 0 c11 -36 116 -515 116 -529 0 -12 -27 -14 -155 -14 -128 0
-155 2 -155 14 0 15 105 495 116 529 4 12 16 17 39 17 23 0 35 -5 39 -17z
m1416 -135 c23 -84 57 -207 76 -272 18 -66 31 -122 28 -125 -3 -3 -281 -6
-617 -6 l-611 0 -12 60 c-10 52 -41 193 -90 410 -7 33 -13 66 -14 73 0 9 126
12 599 12 l599 0 42 -152z m-2157 -835 c32 -142 60 -268 63 -280 l6 -23 -161
0 c-88 0 -161 4 -161 8 0 4 20 98 45 207 46 202 75 333 75 341 0 2 17 4 38 4
l38 0 57 -257z m531 -5 c33 -145 61 -271 64 -280 4 -17 -8 -18 -157 -18 -174
0 -170 -2 -152 56 5 16 13 52 19 79 6 28 29 132 52 232 22 99 40 184 40 187 0
3 17 6 38 6 l38 0 58 -262z m504 120 c17 -79 45 -203 62 -276 16 -73 30 -135
30 -138 0 -2 -72 -4 -160 -4 -88 0 -160 3 -160 8 1 8 8 39 68 307 22 99 44
195 47 213 6 29 10 32 44 32 l37 0 32 -142z m1422 100 c6 -24 31 -115 55 -203
74 -267 83 -305 75 -310 -4 -2 -295 -4 -646 -2 l-639 2 -32 145 c-71 312 -85
376 -90 393 -4 16 31 17 631 17 l635 0 11 -42z"/>
</g>
</svg>
