<?xml version="1.0" standalone="no"?>
<!DOCTYPE svg PUBLIC "-//W3C//DTD SVG 20010904//EN"
 "http://www.w3.org/TR/2001/REC-SVG-20010904/DTD/svg10.dtd">
<svg version="1.0" xmlns="http://www.w3.org/2000/svg"
 width="512.000000pt" height="512.000000pt" viewBox="0 0 512.000000 512.000000"
 preserveAspectRatio="xMidYMid meet">
<metadata>
Created by potrace 1.16, written by Peter Selinger 2001-2019
</metadata>
<g transform="translate(0.000000,512.000000) scale(0.100000,-0.100000)"
fill="#000000" stroke="none">
<path d="M2050 3071 c-85 -3 -160 -9 -167 -14 -6 -4 -17 -24 -23 -45 -6 -20
-15 -46 -20 -57 -8 -18 -104 -296 -178 -520 l-27 -80 -67 -6 c-75 -6 -99 -21
-115 -72 -6 -17 -59 -171 -117 -341 -58 -171 -106 -311 -106 -312 0 -1 -31 -4
-70 -6 -44 -2 -75 -9 -85 -19 -8 -8 -68 -172 -134 -364 -65 -193 -124 -363
-130 -378 -17 -44 -13 -76 14 -102 l24 -25 1708 0 c1550 0 1711 1 1731 16 49
34 47 48 -38 290 -222 628 -199 584 -308 584 l-67 0 -89 253 c-49 138 -107
298 -128 355 -45 117 -51 122 -148 122 l-58 0 -26 73 c-15 39 -71 195 -125
346 -55 150 -106 281 -115 290 -15 14 -67 16 -499 17 -265 0 -552 -2 -637 -5z
m236 -441 c51 -151 94 -276 94 -277 0 -2 -128 -3 -285 -3 -157 0 -285 3 -285
6 0 10 178 533 186 545 3 6 46 8 101 7 l96 -3 93 -275z m823 182 c19 -53 63
-176 98 -272 34 -96 63 -178 63 -183 0 -4 -161 -6 -357 -5 l-357 3 -32 95
c-18 52 -60 175 -93 272 -34 97 -61 180 -61 183 0 3 159 5 353 5 l352 0 34
-98z m-1319 -636 c0 -2 41 -123 90 -269 50 -147 90 -271 90 -277 0 -7 -95 -10
-284 -10 l-285 0 94 278 c52 152 95 278 95 280 0 4 200 2 200 -2z m430 0 c0
-2 -21 -64 -46 -138 -25 -73 -53 -155 -61 -182 -18 -57 -20 -55 -57 55 -14 41
-39 114 -56 162 -16 49 -30 93 -30 98 0 5 55 9 125 9 69 0 125 -2 125 -4z
m468 -269 c51 -149 92 -275 92 -279 0 -5 -129 -8 -286 -8 -231 0 -285 2 -281
13 3 7 44 128 91 268 48 140 88 260 91 267 3 8 33 12 102 12 l98 0 93 -273z
m835 206 c23 -59 47 -125 148 -412 10 -30 19 -59 19 -65 0 -8 -110 -12 -365
-15 -201 -2 -365 -2 -365 0 0 6 -146 437 -164 484 -31 81 -60 75 342 75 l359
0 26 -67z m-2133 -685 c9 -20 156 -456 174 -515 l7 -23 -285 0 c-171 0 -286 4
-286 9 0 5 5 22 11 38 6 15 47 133 90 262 44 128 82 237 85 242 3 5 48 9 100
9 88 0 95 -1 104 -22z m420 10 c0 -21 -114 -348 -121 -348 -4 0 -34 81 -67
180 l-61 180 125 0 c92 0 124 -3 124 -12z m471 -253 c49 -143 92 -268 95 -277
5 -17 -13 -18 -280 -18 -157 0 -286 4 -286 9 0 11 177 528 186 542 3 6 46 8
101 7 l96 -3 88 -260z m302 138 c-25 -71 -51 -150 -60 -178 -8 -27 -18 -53
-22 -57 -4 -4 -33 70 -65 165 -33 94 -61 178 -64 185 -3 9 26 12 125 12 l130
0 -44 -127z m417 124 c0 -2 16 -50 37 -108 20 -57 62 -180 93 -274 l57 -170
-280 -3 c-154 -1 -282 0 -285 3 -3 3 4 34 15 68 12 34 54 158 93 275 l73 212
98 0 c55 0 99 -1 99 -3z m952 -74 c15 -43 59 -165 97 -272 39 -106 71 -197 71
-202 0 -5 -160 -9 -378 -9 l-377 0 -27 83 c-14 45 -53 161 -86 257 -33 96 -63
185 -67 198 l-6 22 373 0 374 0 26 -77z"/>
</g>
</svg>
