<?xml version="1.0" standalone="no"?>
<!DOCTYPE svg PUBLIC "-//W3C//DTD SVG 20010904//EN"
 "http://www.w3.org/TR/2001/REC-SVG-20010904/DTD/svg10.dtd">
<svg version="1.0" xmlns="http://www.w3.org/2000/svg"
 width="512.000000pt" height="512.000000pt" viewBox="0 0 512.000000 512.000000"
 preserveAspectRatio="xMidYMid meet">
<metadata>
Created by potrace 1.16, written by Peter Selinger 2001-2019
</metadata>
<g transform="translate(0.000000,512.000000) scale(0.100000,-0.100000)"
fill="#000000" stroke="none">
<path d="M1913 3072 c-17 -2 -37 -10 -44 -19 -7 -8 -66 -171 -130 -362 l-116
-346 -66 -3 c-56 -2 -69 -7 -85 -27 -11 -14 -70 -176 -132 -360 l-112 -335
-58 0 c-97 0 -92 8 -235 -420 -69 -206 -125 -385 -125 -398 0 -12 11 -34 25
-47 l24 -25 1695 0 c1239 0 1702 3 1720 11 28 13 51 60 43 86 -3 10 -44 126
-90 258 -47 132 -106 299 -132 370 -27 76 -54 137 -66 148 -16 12 -39 17 -88
17 -67 0 -68 0 -78 33 -6 17 -31 91 -57 162 -113 323 -172 483 -187 505 -14
22 -25 25 -91 28 l-75 4 -122 346 c-67 191 -128 354 -137 362 -13 13 -96 15
-632 15 -339 0 -631 -1 -649 -3z m352 -442 l93 -275 -276 -3 c-151 -1 -277 -1
-279 1 -1 2 39 128 89 281 l93 277 94 -3 94 -3 92 -275z m820 263 c27 -69 185
-523 185 -532 0 -8 -106 -10 -367 -9 l-368 3 -92 275 c-51 151 -92 276 -93
278 0 1 164 2 364 2 337 0 364 -1 371 -17z m-1216 -987 c50 -150 91 -276 91
-280 0 -3 -126 -6 -279 -6 l-279 0 89 268 c49 147 91 273 94 280 3 8 32 12 98
12 l94 0 92 -274z m331 270 c0 -11 -113 -342 -119 -348 -4 -5 -34 73 -67 172
l-61 180 124 0 c68 0 123 -2 123 -4z m370 2 c0 -2 41 -124 90 -273 50 -148 90
-273 90 -277 0 -4 -124 -8 -275 -8 -186 0 -275 3 -275 11 0 5 39 126 86 267
47 141 87 263 89 270 3 8 32 12 100 12 52 0 95 -1 95 -2z m953 -65 c14 -38 37
-102 51 -143 22 -65 75 -213 108 -303 6 -15 7 -31 4 -35 -9 -9 -742 -9 -752 0
-7 7 -184 526 -184 541 0 4 168 7 374 7 l374 0 25 -67z m-2052 -933 c49 -145
89 -270 89 -277 0 -10 -59 -13 -275 -13 -151 0 -275 4 -275 8 0 5 41 130 90
278 50 147 90 270 90 271 0 2 43 2 96 1 l97 -3 88 -265z m275 90 c-33 -99 -63
-177 -67 -172 -4 4 -30 79 -59 167 -29 88 -55 166 -58 173 -3 9 25 12 120 12
l123 0 -59 -180z m519 -91 c50 -149 92 -275 93 -280 2 -5 -112 -9 -277 -9
-155 0 -281 3 -281 7 0 3 42 129 93 280 l92 273 95 0 95 0 90 -271z m326 251
c-2 -8 -29 -90 -60 -182 l-57 -167 -49 147 c-27 81 -54 164 -61 185 l-13 38
122 -3 c103 -3 121 -5 118 -18z m464 -247 c48 -148 90 -274 93 -280 3 -10 -57
-13 -278 -13 -222 0 -281 3 -277 13 2 6 44 132 93 279 l89 268 96 0 95 0 89
-267z m918 115 c68 -187 137 -387 137 -399 0 -6 -162 -9 -390 -9 -214 1 -390
2 -390 3 0 1 -43 127 -95 280 l-94 277 388 0 388 0 56 -152z"/>
</g>
</svg>
