<?xml version="1.0" standalone="no"?>
<!DOCTYPE svg PUBLIC "-//W3C//DTD SVG 20010904//EN"
 "http://www.w3.org/TR/2001/REC-SVG-20010904/DTD/svg10.dtd">
<svg version="1.0" xmlns="http://www.w3.org/2000/svg"
 width="512.000000pt" height="512.000000pt" viewBox="0 0 512.000000 512.000000"
 preserveAspectRatio="xMidYMid meet">
<metadata>
Created by potrace 1.16, written by Peter Selinger 2001-2019
</metadata>
<g transform="translate(0.000000,512.000000) scale(0.100000,-0.100000)"
fill="#000000" stroke="none">
<path d="M1691 3080 c-26 -4 -51 -15 -61 -27 -9 -11 -26 -70 -39 -129 -12 -60
-43 -212 -69 -339 l-47 -230 -34 -5 c-21 -3 -41 -15 -52 -30 -15 -20 -105
-427 -144 -651 -6 -31 -12 -37 -42 -45 -20 -5 -44 -20 -54 -34 -22 -30 -172
-753 -164 -787 3 -12 15 -32 27 -43 22 -20 29 -20 1544 -20 944 0 1532 4 1548
10 14 5 33 21 42 35 20 31 29 -9 -100 480 -96 364 -96 365 -171 365 l-44 0
-15 54 c-9 29 -49 181 -90 337 -41 156 -77 291 -81 300 -9 22 -43 38 -89 41
l-39 3 -91 340 c-50 187 -96 349 -103 360 -11 20 -25 20 -800 21 -433 1 -808
-2 -832 -6z m119 -164 c0 -2 25 -126 55 -275 30 -149 55 -274 55 -276 0 -3
-61 -5 -135 -5 -109 0 -135 3 -135 14 0 15 98 512 105 534 4 10 55 18 55 8z
m1394 -13 c3 -10 24 -90 47 -178 22 -88 52 -200 65 -250 13 -49 24 -96 24
-103 0 -10 -128 -12 -622 -10 l-623 3 -12 55 c-19 85 -71 338 -83 408 -6 35
-14 70 -17 78 -4 12 79 14 605 14 573 0 611 -1 616 -17z m-1634 -717 c0 -2 25
-126 55 -275 30 -149 55 -274 55 -276 0 -3 -61 -5 -135 -5 -124 0 -135 2 -135
18 0 18 97 506 105 530 4 10 55 18 55 8z m485 -18 c9 -46 98 -484 103 -510 l4
-28 -136 0 c-153 0 -147 -4 -126 83 5 23 28 132 50 242 23 110 43 208 46 218
8 26 52 22 59 -5z m1468 -30 c56 -196 129 -489 124 -495 -4 -3 -301 -8 -661
-11 l-653 -5 -7 49 c-4 27 -11 63 -16 79 -5 17 -16 68 -25 115 -8 47 -25 138
-38 203 l-24 117 643 0 643 0 14 -52z m-2193 -682 c0 -4 99 -496 107 -533 l5
-23 -142 0 c-130 0 -141 1 -136 18 3 9 28 130 56 267 28 138 53 256 55 263 4
10 55 18 55 8z m489 -43 c15 -70 101 -498 101 -506 0 -4 -61 -7 -135 -7 -119
0 -135 2 -135 17 0 16 97 507 105 531 2 6 15 12 29 12 21 0 26 -7 35 -47z
m475 21 c11 -43 106 -514 106 -524 0 -6 -53 -10 -135 -10 -109 0 -135 3 -135
14 0 15 98 512 105 534 2 6 15 12 29 12 17 0 26 -7 30 -26z m1542 -24 c71
-269 124 -481 124 -494 0 -15 -58 -16 -692 -14 l-692 3 -57 278 -56 277 680
-2 681 -3 12 -45z"/>
</g>
</svg>
