<?xml version="1.0" standalone="no"?>
<!DOCTYPE svg PUBLIC "-//W3C//DTD SVG 20010904//EN"
 "http://www.w3.org/TR/2001/REC-SVG-20010904/DTD/svg10.dtd">
<svg version="1.0" xmlns="http://www.w3.org/2000/svg"
 width="512.000000pt" height="512.000000pt" viewBox="0 0 512.000000 512.000000"
 preserveAspectRatio="xMidYMid meet">
<metadata>
Created by potrace 1.16, written by Peter Selinger 2001-2019
</metadata>
<g transform="translate(0.000000,512.000000) scale(0.100000,-0.100000)"
fill="#000000" stroke="none">
<path d="M1991 3053 c-18 -15 -202 -455 -276 -662 l-19 -51 -77 0 c-58 0 -82
-4 -98 -17 -14 -12 -64 -123 -135 -303 -63 -157 -124 -312 -138 -345 l-24 -60
-81 -3 c-68 -2 -83 -6 -100 -25 -26 -29 -313 -753 -313 -790 0 -16 10 -38 25
-52 l24 -25 1771 0 c1941 0 1816 -4 1838 58 9 26 -7 72 -141 409 -84 208 -157
388 -164 398 -10 17 -26 21 -99 25 l-88 5 -137 345 c-91 228 -144 350 -159
362 -17 14 -40 18 -99 18 l-76 0 -135 343 c-76 192 -145 352 -157 365 l-22 22
-549 0 c-509 0 -551 -1 -571 -17z m461 -418 c60 -148 108 -276 108 -282 0 -10
-74 -13 -338 -13 -186 0 -341 3 -344 6 -4 3 23 78 59 167 35 89 83 209 106
267 22 58 45 111 50 118 7 9 42 12 131 10 l121 -3 107 -270z m654 55 c45 -113
93 -233 108 -267 14 -34 26 -67 26 -73 0 -7 -77 -10 -246 -8 l-246 3 -109 274
c-60 151 -109 276 -109 278 0 2 111 2 247 1 l248 -3 81 -205z m-1122 -788 c59
-150 105 -276 101 -280 -9 -10 -513 -15 -602 -7 -40 4 -73 11 -73 16 0 10 193
498 210 528 10 21 17 21 133 19 l122 -3 109 -273z m389 271 c2 -5 -26 -84 -64
-178 -37 -93 -71 -180 -74 -192 -3 -13 -9 -23 -13 -23 -8 0 -162 375 -162 393
0 4 69 7 154 7 85 0 157 -3 159 -7z m551 -271 c59 -150 105 -276 101 -280 -9
-10 -661 -9 -671 1 -6 6 121 341 192 505 l23 53 123 -3 123 -3 109 -273z m680
-5 c58 -147 106 -270 106 -272 0 -3 -111 -4 -247 -3 l-247 3 -108 270 -107
270 242 5 c133 3 245 3 249 0 3 -3 54 -125 112 -273z m-2092 -717 c58 -146
107 -273 107 -282 1 -17 -22 -18 -345 -18 -326 0 -346 1 -340 18 4 9 55 138
113 285 l107 268 125 -3 126 -3 107 -265z m396 260 c-22 -64 -154 -389 -159
-390 -6 0 -159 378 -159 393 0 4 72 7 161 7 100 0 159 -4 157 -10z m454 -37
c42 -96 198 -496 198 -509 0 -12 -61 -14 -339 -14 -187 0 -342 3 -344 8 -4 7
199 523 216 550 6 8 44 12 128 12 l120 0 21 -47z m481 40 c5 -9 -145 -393
-154 -393 -8 0 -158 384 -152 393 2 4 71 7 153 7 82 0 151 -3 153 -7z m549
-263 c59 -146 107 -272 107 -282 1 -15 -30 -16 -337 -17 -186 -1 -340 1 -344
4 -5 5 187 498 214 548 8 16 23 17 131 15 l122 -3 107 -265z m606 180 c18 -47
51 -128 72 -180 51 -125 110 -278 110 -285 0 -3 -111 -4 -247 -3 l-247 3 -107
270 -107 270 186 6 c103 3 214 5 246 5 l59 -1 35 -85z"/>
</g>
</svg>
