<?xml version="1.0" standalone="no"?>
<!DOCTYPE svg PUBLIC "-//W3C//DTD SVG 20010904//EN"
 "http://www.w3.org/TR/2001/REC-SVG-20010904/DTD/svg10.dtd">
<svg version="1.0" xmlns="http://www.w3.org/2000/svg"
 width="512.000000pt" height="512.000000pt" viewBox="0 0 512.000000 512.000000"
 preserveAspectRatio="xMidYMid meet">
<metadata>
Created by potrace 1.16, written by Peter Selinger 2001-2019
</metadata>
<g transform="translate(0.000000,512.000000) scale(0.100000,-0.100000)"
fill="#000000" stroke="none">
<path d="M1949 3054 c-8 -9 -73 -172 -146 -363 l-131 -346 -81 -5 c-44 -3 -85
-10 -91 -16 -6 -6 -69 -166 -140 -354 -71 -189 -135 -347 -142 -351 -7 -5 -42
-9 -78 -9 -70 0 -81 -4 -97 -35 -32 -61 -283 -746 -283 -772 0 -17 9 -41 19
-54 l19 -24 1762 0 1762 0 24 28 c30 35 30 51 0 129 -14 35 -79 204 -145 377
-66 173 -128 322 -137 333 -14 14 -32 18 -89 18 -46 0 -76 5 -82 13 -6 6 -68
162 -138 345 -70 182 -134 340 -141 350 -9 13 -32 18 -95 22 l-83 5 -27 70
c-16 39 -76 194 -133 345 -67 174 -114 281 -127 293 -20 16 -64 17 -604 17
-526 0 -584 -2 -596 -16z m370 -226 c17 -46 64 -171 105 -278 l74 -195 -36 -7
c-46 -9 -601 -8 -607 1 -2 4 41 126 96 272 54 145 101 270 104 277 3 9 36 12
118 12 l114 0 32 -82z m726 65 c4 -10 41 -106 82 -213 41 -107 85 -223 99
-257 13 -34 24 -64 24 -67 0 -4 -129 -5 -286 -4 l-286 3 -28 75 c-16 41 -62
165 -104 274 -42 109 -76 200 -76 202 0 1 128 3 284 4 263 1 284 -1 291 -17z
m-1154 -843 c97 -254 159 -418 159 -424 0 -3 -144 -6 -320 -6 -205 0 -320 4
-320 10 0 5 32 94 71 197 84 222 129 345 129 350 0 2 52 2 116 1 l117 -3 48
-125z m429 126 c0 -3 -104 -286 -137 -375 -8 -21 -13 -14 -41 60 -17 46 -49
133 -71 192 -23 60 -41 113 -41 118 0 5 62 9 145 9 80 0 145 -2 145 -4z m518
-268 c56 -150 102 -276 102 -280 0 -5 -144 -8 -321 -8 -267 0 -320 2 -317 14
2 7 48 133 103 280 l100 266 115 0 115 0 103 -272z m736 64 c44 -114 90 -233
103 -264 39 -96 61 -88 -265 -88 l-287 0 -103 273 c-56 150 -102 276 -102 280
0 4 129 7 288 7 l287 0 79 -208z m-2076 -792 c56 -148 102 -274 102 -280 0 -7
-111 -10 -321 -10 -253 0 -320 3 -317 13 2 6 49 132 104 279 l99 268 116 0
116 0 101 -270z m355 203 c-15 -38 -46 -122 -70 -188 -25 -66 -48 -124 -52
-128 -6 -6 -151 355 -151 377 0 3 67 6 150 6 l149 0 -26 -67z m471 -25 c19
-51 66 -176 104 -278 l69 -185 -320 -3 c-176 -1 -322 -1 -323 1 -3 3 93 262
195 530 l11 27 114 0 114 0 36 -92z m441 75 c-4 -10 -37 -98 -74 -195 -36 -98
-68 -178 -72 -178 -3 0 -13 24 -24 53 -10 28 -42 114 -72 190 -29 76 -53 140
-53 143 0 2 68 4 151 4 140 0 151 -1 144 -17z m441 -48 c132 -347 184 -489
181 -492 -2 -2 -148 -2 -325 -1 l-320 3 79 210 c44 116 91 241 105 278 l26 68
116 -3 115 -3 23 -60z m774 -17 c17 -46 42 -110 55 -143 13 -33 44 -112 68
-175 25 -63 48 -125 51 -137 l7 -23 -295 0 c-163 0 -296 2 -296 4 0 3 -166
444 -199 529 l-11 27 294 0 293 0 33 -82z"/>
</g>
</svg>
