<?xml version="1.0" standalone="no"?>
<!DOCTYPE svg PUBLIC "-//W3C//DTD SVG 20010904//EN"
 "http://www.w3.org/TR/2001/REC-SVG-20010904/DTD/svg10.dtd">
<svg version="1.0" xmlns="http://www.w3.org/2000/svg"
 width="512.000000pt" height="512.000000pt" viewBox="0 0 512.000000 512.000000"
 preserveAspectRatio="xMidYMid meet">
<metadata>
Created by potrace 1.16, written by Peter Selinger 2001-2019
</metadata>
<g transform="translate(0.000000,512.000000) scale(0.100000,-0.100000)"
fill="#000000" stroke="none">
<path d="M1953 3048 c-11 -13 -59 -126 -106 -253 -47 -126 -106 -279 -129
-340 l-44 -110 -75 -3 c-64 -2 -79 -6 -96 -25 -11 -12 -55 -114 -97 -227 -43
-113 -100 -265 -128 -337 l-51 -133 -51 -1 c-28 -1 -54 -1 -59 0 -4 1 -22 -5
-40 -13 -29 -12 -37 -25 -74 -122 -202 -529 -253 -668 -253 -684 0 -11 11 -32
24 -47 l24 -28 1734 -3 c953 -1 1747 0 1764 3 41 7 74 40 74 73 0 15 -54 169
-121 342 -66 173 -132 346 -146 383 -15 40 -34 72 -47 79 -11 7 -52 13 -89 14
-38 1 -72 5 -76 10 -5 5 -41 95 -81 199 -147 386 -189 487 -207 501 -11 8 -45
13 -90 14 -58 0 -74 3 -82 18 -5 9 -66 166 -136 347 -76 200 -134 337 -147
348 -19 16 -62 17 -597 17 l-578 0 -20 -22z m377 -225 c17 -49 49 -133 71
-188 21 -55 54 -140 73 -190 l33 -90 -51 -8 c-60 -10 -581 -5 -591 5 -4 4 0
26 8 50 33 93 179 473 188 490 9 16 24 18 123 18 l114 0 32 -87z m724 35 c13
-29 40 -93 59 -143 117 -303 137 -355 137 -360 0 -3 -127 -4 -281 -3 l-282 3
-23 60 c-12 33 -57 150 -99 260 -42 110 -79 207 -81 215 -4 13 31 15 270 18
l276 3 24 -53z m-1206 -690 c12 -15 202 -519 202 -536 0 -9 -80 -12 -325 -12
l-324 0 24 63 c13 34 61 160 106 280 l83 217 112 0 c77 0 115 -4 122 -12z
m476 3 c4 -6 -4 -36 -17 -68 -13 -32 -46 -115 -72 -185 -27 -71 -52 -128 -56
-128 -4 0 -15 22 -24 50 -9 27 -40 111 -70 187 -29 76 -52 140 -49 144 6 11
282 11 288 0z m424 -3 c12 -16 202 -519 202 -536 0 -9 -76 -12 -321 -12 l-321
0 6 26 c4 15 40 112 80 218 40 105 81 214 91 241 28 76 25 75 145 75 74 0 111
-4 118 -12z m730 3 c20 -5 37 -40 109 -226 47 -121 93 -244 103 -273 l19 -52
-286 2 -287 3 -16 45 c-9 25 -20 54 -25 65 -8 21 -30 78 -114 300 l-49 130 56
6 c79 8 462 8 490 0z m-2070 -748 c22 -57 143 -375 172 -452 l29 -81 -324 0
c-223 0 -325 3 -325 11 0 6 46 132 102 280 l103 269 116 0 117 0 10 -27z m472
17 c0 -5 -11 -34 -25 -64 -14 -30 -25 -60 -25 -65 0 -6 -4 -19 -9 -29 -5 -9
-27 -65 -48 -124 -21 -59 -41 -104 -44 -100 -3 4 -23 52 -44 107 -20 55 -52
139 -71 187 -19 49 -34 90 -34 93 0 3 68 5 150 5 90 0 150 -4 150 -10z m475
-142 c32 -84 80 -209 107 -277 26 -68 48 -125 48 -127 0 -2 -148 -4 -330 -4
l-330 0 21 53 c11 28 59 154 106 280 l87 227 116 0 117 0 58 -152z m422 135
c-3 -10 -33 -90 -67 -178 -34 -88 -65 -171 -70 -185 l-7 -25 -13 30 c-23 57
-140 366 -140 371 0 2 68 4 151 4 139 0 151 -1 146 -17z m446 -50 c14 -38 61
-162 105 -278 l79 -210 -320 -3 c-176 -1 -323 0 -326 3 -3 4 2 25 10 48 9 23
56 147 104 275 l89 232 116 0 117 0 26 -67z m810 -143 c44 -113 90 -233 103
-267 13 -34 24 -66 24 -72 0 -8 -84 -11 -286 -9 l-286 3 -20 50 c-11 28 -23
61 -28 75 -4 14 -42 114 -84 223 -42 109 -76 201 -76 203 0 2 129 3 287 2
l288 -3 78 -205z"/>
</g>
</svg>
