<svg xmlns="http://www.w3.org/2000/svg" xmlns:xlink="http://www.w3.org/1999/xlink" version="1.1" id="Layer_1" x="0px" y="0px" enable-background="new 0 0 1024 1024" xml:space="preserve" viewBox="173.18 223.34 679.37 513.14">
<path fill="#000000" opacity="1.000000" stroke="none" d=" M817.841553,238.052399   C817.576477,232.969391 817.310852,228.376465 817.049988,223.865387   C819.034851,223.237732 819.734436,224.545471 820.550659,225.542877   C842.845642,252.787903 854.889648,283.629120 852.167786,319.187012   C849.345703,356.053040 831.675354,384.745270 801.985413,406.195526   C773.031921,427.113770 740.035339,437.178925 704.988220,441.497711   C703.048096,441.736725 701.139954,442.234833 699.189148,443.167206   C728.852905,450.087494 758.748962,455.047577 789.486450,455.675232   C774.464111,474.908203 755.938293,488.387695 732.515198,494.675049   C709.262695,500.916565 686.555115,500.397003 665.061707,488.542267   C663.544006,490.770508 664.537109,492.250641 665.209045,493.730194   C671.669067,507.954590 672.688232,522.468323 666.120789,536.781799   C651.322693,569.033691 633.931519,599.736084 607.936584,624.475586   C602.483398,629.665344 601.186707,633.433350 604.248291,640.298279   C609.611877,652.324829 608.876648,664.816223 601.258850,675.567749   C588.746887,693.226685 574.862610,709.910889 559.012146,724.695129   C550.339722,732.784058 539.219177,736.319824 527.306763,736.183777   C514.836609,736.041382 502.310913,737.353455 489.901398,735.402832   C479.211029,733.722351 469.718079,729.062378 462.509796,721.063721   C450.692902,707.950989 439.260101,694.475037 428.062195,680.826660   C416.884918,667.203369 416.074402,651.968262 423.089600,636.267151   C425.065674,631.844299 424.123260,629.515564 420.540253,626.689819   C406.182495,615.366821 396.219727,600.286499 386.352997,585.242188   C376.024597,569.493958 366.838409,553.085449 359.431915,535.714905   C353.351532,521.454468 354.705597,507.490143 360.503754,493.566101   C361.233826,491.812836 362.693695,490.188751 362.119720,488.111359   C311.607605,510.788208 271.117523,494.073181 235.691299,456.213043   C266.289948,453.847412 296.572449,450.432739 326.415405,443.361603   C320.003937,440.693237 313.152039,440.685913 306.555023,439.445435   C277.275391,433.939880 249.573853,424.437103 225.066040,407.086060   C190.672989,382.736450 172.647705,349.297699 173.188705,307.183807   C173.591797,275.805206 185.325287,248.141983 206.514069,224.733566   C206.919296,224.285858 207.503052,223.999771 208.410812,223.344116   C209.510345,226.813568 208.413025,229.865112 208.196182,232.789124   C204.764771,279.061035 226.163803,311.306274 265.225677,333.267212   C291.409119,347.987762 319.838074,355.630798 349.642426,358.909576   C362.736115,360.350037 375.857819,361.152924 388.957428,361.346039   C398.517365,361.487030 408.106445,359.481598 417.686371,358.469299   C441.842560,355.916962 466.026825,353.966217 490.338654,353.425690   C503.661194,353.129517 516.976440,352.685059 530.295471,353.033783   C552.577942,353.617157 574.786255,355.294250 596.982605,357.386566   C610.397217,358.651093 623.748596,361.096375 637.172974,361.391724   C652.107849,361.720276 667.108704,360.503876 681.950073,358.490112   C706.334900,355.181519 729.901062,348.756775 752.060547,337.917542   C776.081909,326.167511 796.345886,310.145050 808.446838,285.516785   C815.717896,270.718475 818.646179,254.987976 817.841553,238.052399  M605.713989,513.476501   C602.363647,514.522766 598.966614,515.380066 595.432129,515.325806   C591.219849,515.261108 588.038940,517.169495 585.656738,520.433777   C583.893005,522.850647 582.277588,525.393677 580.791565,527.992249   C572.678772,542.178833 563.968994,555.978577 554.318359,569.173889   C553.605774,570.148254 553.154968,571.755371 551.286560,570.910095   C550.640503,569.098328 551.892639,567.735535 552.383423,566.221558   C554.538513,559.573608 556.839417,552.971497 558.905151,546.296326   C562.795166,533.725891 565.593201,520.907837 567.913330,507.947357   C570.440857,493.828522 580.774231,485.892670 592.285522,479.234192   C598.482910,475.649475 605.266296,472.954315 611.085022,468.862122   C627.512146,457.309265 625.028809,459.061768 619.499756,443.312042   C618.565857,440.651978 617.231201,438.127838 616.008118,435.576172   C615.445312,434.401978 614.913574,433.091309 612.517151,432.921021   C605.325684,440.524872 597.206787,447.854736 587.492676,453.181335   C588.024231,449.864746 590.358215,447.908112 591.985657,445.507202   C602.586853,429.867401 609.779297,413.131165 608.674438,393.731415   C608.465942,390.070465 608.485291,385.999542 604.000854,384.741486   C589.661133,380.718628 575.073914,378.255463 560.128235,379.493805   C555.918884,379.842560 552.221619,381.778564 550.050598,385.953491   C547.593567,390.678497 544.621643,395.138947 542.224792,399.891541   C529.247620,425.623138 520.986389,452.993469 514.338257,480.911591   C514.080261,481.994904 514.274719,483.361023 512.514343,483.430206   C511.335205,482.155212 511.163086,480.439026 510.857452,478.856110   C508.550903,466.909546 505.129913,455.251190 501.463806,443.683716   C495.462555,424.748291 487.761414,406.522980 477.973083,389.184814   C473.933167,382.028809 468.250671,378.692322 460.014954,379.075592   C448.003326,379.634613 436.201172,381.492828 424.445984,383.883026   C420.007263,384.785583 417.711578,387.437561 417.453766,391.736145   C417.135376,397.044312 416.797272,402.354340 417.758453,407.680237   C420.441803,422.548309 426.600006,435.876129 435.178070,448.200500   C436.200470,449.669373 437.941284,451.002228 437.352478,453.875732   C427.824249,447.773438 420.974152,439.312500 412.502563,432.082794   C407.799286,438.416931 405.705658,445.204437 403.280884,451.892822   C401.675812,456.320190 402.699280,459.319275 406.146027,462.400330   C413.592346,469.056610 422.450470,473.276398 431.109283,477.919098   C443.581573,484.606506 455.038300,492.682068 458.005249,507.620056   C462.030914,527.888367 466.803772,547.901123 473.848419,567.345947   C474.302582,568.599548 475.462921,569.985779 474.128235,571.463440   C472.392395,571.476929 471.987518,569.993958 471.294922,568.965027   C461.619690,554.591370 451.653900,540.398621 443.296173,525.187012   C439.950043,519.096802 435.412872,515.789795 428.095123,514.742371   C409.430115,512.070801 403.018524,505.433563 399.679047,487.324280   C399.192810,484.687500 397.485840,483.514587 395.341034,482.028137   C392.878235,487.467499 391.679382,492.660950 392.609375,498.297791   C395.777557,517.500732 406.311829,530.922668 423.673645,539.650085   C441.810455,548.767090 454.140167,563.175903 459.591156,582.914062   C461.478394,589.747864 463.368683,596.816101 463.546143,603.820618   C463.723450,610.821472 460.392670,617.238281 456.095154,623.048035   C447.268219,634.981079 443.530548,647.807678 451.690033,661.620911   C455.835052,668.638062 460.874847,675.120667 465.252106,682.008911   C467.799835,686.018127 470.628418,686.813171 475.238495,685.407349   C500.884003,677.587341 526.627319,676.828064 552.261475,685.558777   C555.669250,686.719543 557.975769,686.021729 559.931030,683.161438   C563.877991,677.387634 567.948303,671.697449 571.853088,665.895630   C581.411560,651.693726 581.470337,639.761108 571.605042,625.691406   C565.166992,616.509521 561.607849,607.235718 563.419434,595.435364   C566.535767,575.135498 574.745972,558.239563 591.640564,546.249268   C598.547363,541.347473 606.507690,537.895142 613.252869,532.807800   C627.692200,521.917480 634.822571,507.373199 632.812988,488.943512   C632.577637,486.785522 632.023315,484.868225 629.752808,483.294434   C626.715088,489.429993 625.609314,495.967834 622.044983,501.465210   C618.249268,507.319397 613.151672,511.282135 605.713989,513.476501  M255.072464,353.405975   C257.502106,355.158997 259.872772,357.001282 262.370178,358.651733   C300.408569,383.789948 343.103790,393.696594 387.821899,397.077850   C392.321655,397.418060 394.273712,395.581360 394.661804,391.370422   C394.767822,390.219940 395.132965,389.095215 395.343506,387.952148   C396.736267,380.389954 395.550659,378.650818 387.828125,378.504761   C363.951660,378.053131 340.484924,374.588959 317.270721,369.228760   C290.260468,362.992096 264.730499,353.277496 242.416107,336.373016   C235.188965,330.898010 228.147522,325.152679 222.057983,318.336761   C230.480057,332.159485 241.624893,343.382690 255.072464,353.405975  M794.097595,331.608032   C795.842712,329.267975 797.587830,326.927887 799.332947,324.587830   C797.251831,325.271118 795.651306,326.381439 794.199341,327.660400   C772.381592,346.878906 746.970459,359.308960 719.122192,366.874969   C691.879822,374.276398 664.025940,377.852905 635.848389,379.069061   C633.972351,379.150024 631.193909,378.326660 630.647766,380.816040   C629.517639,385.967804 630.314575,391.281372 632.564636,395.899445   C634.239014,399.335999 638.362915,397.698639 641.273682,397.448517   C666.391052,395.289978 691.050049,390.734680 714.908081,382.391357   C745.094421,371.834900 772.104004,356.265839 794.097595,331.608032  M517.455688,695.087097   C505.374268,694.846863 493.399445,695.310425 481.707062,700.211182   C485.172852,704.377319 488.986664,706.669250 494.131226,705.691406   C506.315887,703.375305 518.467102,703.397766 530.678528,705.614014   C535.759827,706.536133 540.006653,704.476074 543.913269,700.499329   C535.500427,696.809448 527.162537,695.074097 517.455688,695.087097  M419.596527,489.995026   C417.759430,489.364594 416.119934,488.087891 413.611420,488.213715   C412.976532,493.328705 412.994293,498.345398 417.131805,501.958496   C421.801697,506.036438 427.430756,506.485687 433.516754,504.990387   C432.077179,496.932037 426.728271,493.103729 419.596527,489.995026  M611.996704,494.668365   C612.286438,492.446503 614.290710,489.283325 610.028992,489.062866   C603.415955,488.720856 593.479614,497.753479 592.263794,504.742615   C601.557739,507.844116 608.600098,504.467224 611.996704,494.668365  z"/>
<path fill="#000000" opacity="1.000000" stroke="none" d=" M569.151489,643.957520   C568.530090,648.974426 566.530762,653.036560 563.239136,656.156677   C560.567261,658.689331 557.978760,662.064880 553.127869,658.781677   C550.817810,657.218140 547.319336,659.014648 544.353882,659.211426   C539.302979,659.546631 537.942261,657.660461 539.848938,652.980347   C542.595398,646.238831 547.404968,641.380920 553.673035,637.858093   C555.118652,637.045532 556.601685,636.293701 558.009033,635.419861   C564.412231,631.443542 566.713013,632.469421 568.447083,640.132690   C568.703186,641.264465 568.910767,642.407288 569.151489,643.957520  z"/>
<path fill="#000000" opacity="1.000000" stroke="none" d=" M458.086609,638.409607   C461.109344,631.580505 461.721405,631.444275 467.322571,635.194458   C470.623077,637.404297 474.123077,639.313721 477.486511,641.432617   C480.206238,643.145996 482.313354,645.527100 483.873260,648.290222   C485.520050,651.207214 488.832306,654.208618 486.420746,657.696472   C484.220215,660.879089 480.329895,659.221375 477.136749,658.849548   C474.517822,658.544495 471.906464,657.620483 469.476105,659.411438   C468.508087,660.124817 467.683929,659.829285 466.741852,659.315430   C460.370209,655.839783 456.178680,646.101562 458.086609,638.409607  z"/>
</svg>