<?xml version="1.0" encoding="UTF-8"?>
<svg id="Layer_3" data-name="Layer 3" xmlns="http://www.w3.org/2000/svg" xmlns:xlink="http://www.w3.org/1999/xlink" viewBox="0 0 621 337.13">
  <defs>
    <style>
      .cls-1 {
        fill: #fff;
      }

      .cls-2 {
        fill: url(#linear-gradient);
        fill-rule: evenodd;
      }
    </style>
    <linearGradient id="linear-gradient" x1="525.94" y1="192.62" x2="-11" y2="-26.44" gradientUnits="userSpaceOnUse">
      <stop offset="0" stop-color="#fbf09c"/>
      <stop offset=".08" stop-color="#dcad49"/>
      <stop offset=".1" stop-color="#c79636"/>
      <stop offset=".13" stop-color="#a57318"/>
      <stop offset=".16" stop-color="#905d06"/>
      <stop offset=".18" stop-color="#895500"/>
      <stop offset=".33" stop-color="#b17d1e"/>
      <stop offset=".43" stop-color="#c6932f"/>
      <stop offset=".79" stop-color="#fff690"/>
      <stop offset="1" stop-color="#d0a440"/>
    </linearGradient>
  </defs>
  <g id="Layer_1" data-name="Layer 1">
    <g id="Gold-white-Vertical">
      <path class="cls-2" d="M444.01,218.9h26.37c1.81-7.01,5.66-12.25,10.63-16.53-11.62-8.99-22.17-19.37-24.09-41.01-8.71-2.06-19.7-12.52-22.55-31.02-2.72-17.62-8.86-30.61-21-39.42-1.29-.94-2.76-1.9-4.38-2.87,10.41-2.02,21.38-3.07,31.53-1.56,4.74.7,10.2,2.53,14.52,4.55,5.02,2.35,13.78,7.37,11.29,14.23-.14.38-.32.75-.53,1.1-.86,1.42-2.27,2.59-3.61,3.56-3.21,2.32-8.65,4.8-9.62,8.92-.16.67-.2,1.35-.12,2.03.77,7.11,10.02,11.57,15.96,13.49,9.88,3.19,21.18,3.43,31.29,1.19,2.48-.55,4.8-1.64,6.76-3.26,3.07-2.55,4.9-6.09,5.54-10,.74-4.6-.19-9.35-1.89-13.64l6.16-2.16-25.66-20.15,9.92,25.66,4.25-1.49c2.23,5.52,3.24,13.16-1.92,17.44-1.27,1.05-2.78,1.74-4.39,2.1-9.12,2.02-19.41,1.83-28.33-1.05-3.09-1-6.43-2.46-8.99-4.48-1.22-.96-2.91-2.61-3.09-4.25,0-.05,0-.09,0-.13.15-.63,1.54-1.68,2.03-2.03,1.75-1.26,3.64-2.34,5.4-3.61,2.63-1.91,5-4.18,6.13-7.3.85-2.33,1.05-4.74.47-7.16-1.62-6.76-8.78-11.35-14.67-14.11-4.82-2.25-10.8-4.24-16.08-5.02-12.96-1.93-26.99-.01-39.86,2.98-14.08-7.31-33.41-15.31-46.1-22.78-35.02-20.61-59.13-44.34-84.08-61.11l-46.16,20.25c-15.08,6.61-14.1-1.12-20.09,5.78-1.56,1.79-1.97,4.57-5.16,8.84-6.36,8.5-13.26,15.91-20.21,23.22l-21.17-5.9c-19.29,10.16-37.21,11.91-55.02,12.99,13.66,4.24,28.78,6.51,50.22.24l10.94,3.46-3.38,2.6.16,5.83-3.31-1.02c-16.55,9.35-32.94,10.86-49.28,9.92,15.88,6.48,32.34,8.53,49.91,2.2l14.48,4.88-4.18.13-7-.6v4.17c5.36,3.89,9.94,8.47,14.25,13.3l4.72.39,13.62,19.21,15.66-5.67-.24-11.41c3.17-4.34,5.78-8.95,3.46-15.82,9.73.26,17.61,10.91,12.13,21.54-1.83,3.55-5.18,6.45-5.93,8.87-2.89,9.3,4.09,10.76,7.87,14.4.25-5.74,3.12-12.07,7.61-18.83,3.47-5.23,4.23-12.09,6.72-18.05,2.78,15.26-9.41,27.4-9.42,34.86-.03,15.96,22.24,12.75,34.28,18.45,6.6,3.12,11.6,7.52,15.38,12.92,4.46-1,8.92-1.99,13.38-2.99l-7.56-16.37c-8.48-.49-18.18-2.88-24.54-9.84-5.76-6.32,1.31-17.01,7.04-21.6,5.32-4.26,10.79-7.02,16.87-8.85-8.95,5.95-17.73,11.97-19.68,21.1,42.46,1.15,82.05,10.82,95.72,40.14-6.77,6.21-14.17,9.08-21.18,10.86-15.02,3.83-20.55,13.01-19.6,17l25.5,3.31c10.34-14.73,26.86-20.34,45.18-23.3l-3.62-12.75c-8.04-2.98-15.1-7.63-17.44-15.77-2.09-7.28-2.11-16.67-2.24-26.1,3.67,10.52,6.84,23.09,14.65,29.5,4.51,3.7,10.56,5.06,16.27,6.14,12.47,2.35,26.17,6.2,36.31,13.99,6.78,5.2,11.61,11.73,14.62,19.48,4.05,5.64,3.74,9.36-2.47,13.39-5.88,3.81-5.7,9.19-5.41,10.46h0ZM260.93,157.98v15.74c-7.03-.36-13.77-1.37-15.6-5.97-1.68-4.22-2.56-9.05-4.86-11.98,6.69.28,13.47.87,20.47,2.2h0ZM180.41,96.98l-3.78,6.14,3.78,2.68v-8.82h0Z"/>
      <g>
        <path class="cls-1" d="M29.23,242.97c2.65,0,5.1.08,7.36.23s4.65.46,7.17.93c2.39.41,4.65,1,6.79,1.77,4.6,1.65,8.11,4.1,10.53,7.36,2.78,3.73,4.16,8.43,4.16,14.11,0,4.65-1.14,8.82-3.43,12.49-2.26,3.65-5.54,6.28-9.83,7.9,9.74,3.27,14.61,10.58,14.61,21.94-.1,8.59-2.83,14.79-8.17,18.62-3.34,2.44-7.45,4.13-12.34,5.05-4.37.85-9.49,1.27-15.35,1.27-11.41,0-21.66-.81-30.73-2.43v-86.75c3.7-.72,8.23-1.31,13.57-1.77,5.14-.49,10.36-.73,15.65-.73ZM29.84,294.44h-11.76v24.99c3.91.51,7.97.77,12.18.77,4.68,0,8.34-.42,10.99-1.27,2.39-.77,4.16-2.05,5.32-3.84,1.16-1.79,1.79-4.29,1.89-7.5,0-4.24-1.16-7.42-3.47-9.52-1.03-.95-2.38-1.7-4.05-2.24-2.78-.93-6.48-1.39-11.11-1.39ZM18.12,258.01v23.21h11.72c4.55,0,8.1-.42,10.64-1.27,2.34-.77,4.08-2.02,5.23-3.76,1.14-1.74,1.75-4.15,1.83-7.23,0-4.37-1.25-7.36-3.74-8.98-1.65-1.16-3.69-1.89-6.13-2.2-2.11-.33-4.92-.5-8.44-.5s-7.38.24-11.1.73Z"/>
        <path class="cls-1" d="M81.01,308.79v-43.72h17.08v42.18c0,1.88.05,3.34.15,4.39.31,2.83,1.03,4.87,2.16,6.13,1.05,1.08,2.45,1.88,4.18,2.41,1.73.53,4.05.79,6.96.79,4.34,0,7.84-.62,10.49-1.85.28-2.67.42-5.74.42-9.21v-44.84h17v50.2c0,4.7-.19,9.05-.58,13.03-7.94,4.24-18.15,6.36-30.62,6.36-9.95,0-17.12-1.97-21.52-5.9-1.83-1.67-3.21-3.89-4.16-6.67-.39-1.05-.72-2.42-1-4.09-.39-2.57-.58-5.64-.58-9.22Z"/>
        <path class="cls-1" d="M156.08,316.27v-77.73h17.16v76.46c0,3.11.36,5.78,1.08,8.02.75,2.29,1.98,4.63,3.7,7.02l-15.11,7.09c-2.31-2.7-4.02-5.67-5.13-8.91-1.13-3.34-1.7-7.33-1.7-11.95Z"/>
        <path class="cls-1" d="M190.16,316.27v-77.73h17.16v76.46c0,3.11.36,5.78,1.08,8.02.75,2.29,1.98,4.63,3.7,7.02l-15.11,7.09c-2.31-2.7-4.02-5.67-5.13-8.91-1.13-3.34-1.7-7.33-1.7-11.95Z"/>
        <path class="cls-1" d="M241.6,254.84c-1.41,1.41-4.05,2.12-7.9,2.12s-6.5-.71-7.94-2.12c-1.44-1.44-2.16-3.96-2.16-7.56s.73-6.1,2.2-7.52c1.49-1.44,4.13-2.16,7.9-2.16s6.41.72,7.9,2.16c1.47,1.41,2.2,3.92,2.2,7.52s-.73,6.12-2.2,7.56ZM242.33,333.73h-17.24v-68.67h17.24v68.67Z"/>
        <path class="cls-1" d="M257.67,299.38c0-10.18,1.43-17.99,4.28-23.44,2.29-4.14,5.55-7.13,9.77-8.96,4.23-1.84,9.8-2.78,16.71-2.83,5.76,0,10.57.65,14.44,1.95,3.87,1.3,7.01,3.37,9.43,6.23,2.44,2.83,4.21,6.42,5.3,10.78,1.09,4.36,1.64,9.79,1.64,16.29s-.54,11.87-1.62,16.27c-1.08,4.34-2.85,7.97-5.32,10.87-2.44,2.83-5.59,4.89-9.45,6.19-3.85,1.3-8.66,1.95-14.42,1.95s-10.59-.63-14.42-1.89c-3.83-1.26-6.97-3.3-9.41-6.13-2.44-2.83-4.21-6.43-5.3-10.8-1.09-4.37-1.64-9.86-1.64-16.46ZM288.44,320.85c2.85,0,5.12-.33,6.81-1,1.68-.67,3.04-1.84,4.07-3.51,1.08-1.7,1.81-3.87,2.2-6.52.41-2.57.62-6.05.62-10.45s-.21-7.84-.62-10.41c-.39-2.65-1.12-4.82-2.2-6.52-1.03-1.67-2.38-2.85-4.07-3.53-1.68-.68-3.95-1.02-6.81-1.02s-5.06.33-6.79.98c-1.72.66-3.07,1.77-4.05,3.34-.67,1-1.21,2.33-1.62,3.97-.75,3.01-1.12,7.4-1.12,13.19,0,4.45.21,8.03.62,10.76.41,2.73,1.12,4.88,2.12,6.48.98,1.54,2.33,2.64,4.07,3.28,1.74.64,3.99.96,6.77.96Z"/>
        <path class="cls-1" d="M351.33,288.89v44.84h-17.04v-50.2c0-4.29.19-8.64.58-13.03,7.97-4.24,18.23-6.36,30.77-6.36,10.2.1,17.25,1.95,21.13,5.55,1.39,1.26,2.48,2.56,3.28,3.89.8,1.34,1.41,2.96,1.85,4.86.49,1.95.78,3.78.89,5.48.15,1.75.23,3.78.23,6.09v43.72h-17.04v-42.18c0-1.57-.06-3.02-.19-4.36-.31-2.88-1.04-4.92-2.2-6.13-1-1.1-2.38-1.92-4.14-2.45-1.76-.53-4.12-.79-7.08-.79-4.45,0-7.98.62-10.6,1.85-.28,2.67-.42,5.74-.42,9.22Z"/>
        <path class="cls-1" d="M433.38,334.66c-9.33,0-16.07-1.79-20.2-5.36-4.17-3.57-6.25-9.09-6.25-16.54,0-6.32,1.52-11.28,4.57-14.86,3.05-3.59,7.86-5.91,14.44-6.96,4.63-.72,11.95-1.3,21.98-1.74,0-4.01-.99-6.93-2.97-8.75-1.98-1.83-5.19-2.74-9.64-2.74-7.02,0-15.1.59-24.25,1.77l-1.39-12.72c10.28-1.75,19.27-2.62,26.95-2.62,6.61,0,12.08.89,16.43,2.66,2.44,1,4.5,2.31,6.17,3.93,1.7,1.67,3.03,3.83,3.99,6.48s1.45,5.65,1.45,9.02v29.03c0,4.29-.19,8.64-.58,13.03-7.3,4.24-17.53,6.36-30.69,6.36ZM447.92,310.6v-10.22l-2.55.15-2.85.12c-1.34.1-2.21.17-2.62.19-1.29.08-2.22.17-2.82.27-1.83.21-3.49.48-5.01.81-2.13.51-3.77,1.12-4.9,1.81-2.29,1.39-3.43,4.32-3.43,8.79,0,3.44.94,5.83,2.82,7.17,1.9,1.31,4.84,1.97,8.83,1.97,5.19,0,9.23-.62,12.11-1.85.28-2.67.42-5.74.42-9.22Z"/>
        <path class="cls-1" d="M497.92,254.84c-1.41,1.41-4.05,2.12-7.9,2.12s-6.5-.71-7.94-2.12c-1.44-1.44-2.16-3.96-2.16-7.56s.73-6.1,2.2-7.52c1.49-1.44,4.13-2.16,7.9-2.16s6.41.72,7.9,2.16c1.47,1.41,2.2,3.92,2.2,7.52s-.73,6.12-2.2,7.56ZM498.66,333.73h-17.24v-68.67h17.24v68.67Z"/>
        <path class="cls-1" d="M533.28,289.28v44.46h-17v-50.2c0-4.73.19-9.07.58-13.03,3.75-2.16,8.02-3.75,12.8-4.78,4.96-1.05,9.89-1.58,14.81-1.58,2.47,0,4.79.12,6.98.35l-1.39,13.73c-1.26-.18-2.91-.27-4.93-.27s-4.22.19-6.32.58c-2.01.33-3.7.85-5.09,1.54-.28,2.67-.42,5.74-.42,9.22Z"/>
        <path class="cls-1" d="M589.34,334.66c-8.89,0-15.71-2.17-20.44-6.52-2.21-2.06-3.98-4.59-5.32-7.6-1.34-3.01-2.28-6.22-2.82-9.64-.54-3.39-.81-7.24-.81-11.53,0-6.27.53-11.62,1.58-16.04,1.05-4.34,2.79-7.97,5.21-10.87,2.41-2.9,5.56-5.02,9.45-6.34,3.88-1.32,8.74-1.99,14.57-1.99,10.41.1,17.88,2.38,22.4,6.82,3.01,2.96,5.08,6.74,6.21,11.34,1.08,4.19,1.62,9.45,1.62,15.77,0,1.83-.08,3.66-.23,5.51-3.88.72-9,1.4-15.35,2.04-6.5.67-12.22,1.13-17.16,1.39l-11.3.58c.31,5.24,1.86,8.82,4.66,10.72,2.67,1.75,6.53,2.62,11.57,2.62,6.79,0,15.04-.6,24.75-1.81l1.43,12.92c-10.69,1.75-20.71,2.62-30.04,2.62ZM576.47,295.87l11.8-.58c5.71-.31,10.85-.76,15.42-1.35.1-.62.15-1.53.15-2.74,0-4.78-1.02-8.3-3.07-10.56-2.04-2.26-5.38-3.39-10.01-3.39s-8.2,1.14-10.49,3.43c-1.05,1-1.86,2.35-2.43,4.05-.54,1.54-.91,3.23-1.12,5.05-.18,1.54-.27,3.57-.27,6.09Z"/>
      </g>
    </g>
  </g>
</svg>